<svg id="Layer_1" data-name="Layer 1" xmlns="http://www.w3.org/2000/svg" viewBox="0 0 187 42"><defs><style>.cls-1{fill:#001956;}</style></defs><title>Powered-by-LoopBack-Badge-(solid-dark)</title><path class="cls-1" d="M105.22,18.84c-1,0-1.73.55-1.73,1.3v2.61c0,.75.77,1.3,1.73,1.3a1.83,1.83,0,0,0,1.87-2V20.84A1.83,1.83,0,0,0,105.22,18.84Z"/><path class="cls-1" d="M128.71,19.09c-.91,0-1.49.59-1.49,1.66v1.33c0,1.08.58,1.67,1.49,1.67s1.49-.59,1.49-1.67V20.75C130.2,19.68,129.62,19.09,128.71,19.09Z"/><path class="cls-1" d="M51,16.6H48.47v3.27H51a1.21,1.21,0,0,0,1.36-1.29v-.69A1.21,1.21,0,0,0,51,16.6Z"/><path class="cls-1" d="M136.09,19.09c-.91,0-1.49.59-1.49,1.66v1.33c0,1.08.58,1.67,1.49,1.67s1.49-.59,1.49-1.67V20.75C137.58,19.68,137,19.09,136.09,19.09Z"/><path class="cls-1" d="M75.16,18.76a1.88,1.88,0,0,0-1.89,2v.1h3.65v-.14A1.76,1.76,0,0,0,75.16,18.76Z"/><path class="cls-1" d="M57.59,18.83a1.82,1.82,0,0,0-1.88,2.08V22a1.89,1.89,0,1,0,3.76,0V20.91A1.82,1.82,0,0,0,57.59,18.83Z"/><path class="cls-1" d="M143.85,19.11c-.84,0-1.47.46-1.47,1.16v2.27c0,.74.63,1.17,1.47,1.17A1.52,1.52,0,0,0,145.39,22V20.8A1.54,1.54,0,0,0,143.85,19.11Z"/><path class="cls-1" d="M87.13,18.76a1.88,1.88,0,0,0-1.9,2v.1h3.65v-.14A1.76,1.76,0,0,0,87.13,18.76Z"/><path class="cls-1" d="M94.41,18.84a1.83,1.83,0,0,0-1.87,2v1.21a1.83,1.83,0,0,0,1.87,2c1,0,1.73-.55,1.73-1.3V20.14C96.14,19.39,95.37,18.84,94.41,18.84Z"/><path class="cls-1" d="M184.71,0H2.29A2.28,2.28,0,0,0,0,2.29V39.71A2.28,2.28,0,0,0,2.29,42H184.71A2.28,2.28,0,0,0,187,39.71V2.29A2.28,2.28,0,0,0,184.71,0ZM23.23,9.57l8,4.54,0,8L28.08,20.3l0-4.37-4.81-2.75L18.46,16v4.38L17.4,21l-2,1.32,0-8.11Zm-1.38,8.82L19.6,19.7V17.1Zm-12.73,6,0-6.65,5.11-3v3.62l-2,1.16v3l2.64,1.5,12.06-7v3.62l-12,7Zm14.2,8-6.74-3.85,3-1.91,3.75,2.15,3.8-2.22,3.14,1.79Zm8.4-4.82-7-4,3.11-1.83L31.7,24l2.62-1.54v-3l-2-1.13V14.68l5.14,2.94v6.63Zm19.37-6.56H48.47V25H47.14V15.42h4a2.55,2.55,0,0,1,2.71,2.82A2.55,2.55,0,0,1,51.09,21.05Zm6.5,4.11c-1.93,0-3.24-1.45-3.24-3.71s1.31-3.72,3.24-3.72,3.24,1.45,3.24,3.72S59.52,25.16,57.59,25.16ZM69.46,25H68l-1-3.34-.61-2.08h0l-.59,2.08-1,3.34H63.32l-1.9-7.11h1.23l.74,3,.72,2.93h0l.81-2.93.88-3H67l.91,3,.82,2.93h0l.67-2.93.76-3h1.19Zm8.82-3.24h-5v.29a1.89,1.89,0,0,0,2,2,2.06,2.06,0,0,0,1.92-1.15l.83.7a3.13,3.13,0,0,1-2.86,1.53c-2,0-3.22-1.46-3.22-3.71s1.25-3.72,3.22-3.72,3.12,1.51,3.12,3.5Zm5.17-2.59h-.63c-1.18,0-1.87.46-1.87,1.16V25H79.68V17.89H81v1.36H81a2,2,0,0,1,2-1.36h.43Zm6.79,2.59h-5v.29a1.89,1.89,0,0,0,2,2,2.07,2.07,0,0,0,1.92-1.15l.82.7a3.1,3.1,0,0,1-2.85,1.53c-2,0-3.23-1.46-3.23-3.71s1.25-3.72,3.23-3.72,3.11,1.51,3.11,3.5ZM97.41,25H96.14V23.83h-.06a2,2,0,0,1-2,1.33c-1.78,0-2.85-1.41-2.85-3.71s1.07-3.72,2.85-3.72a2,2,0,0,1,2,1.33h.06V14.85h1.27Zm8.18.16a2,2,0,0,1-2-1.33h-.06V25h-1.27V14.85h1.27v4.21h.06a2,2,0,0,1,2-1.33c1.78,0,2.85,1.41,2.85,3.72S107.37,25.16,105.59,25.16Zm6.75,1.39c-.33.89-.67,1.19-1.76,1.19h-.7V26.66h1.17l.48-1.37-2.63-7.4h1.27l1.58,4.54.37,1.33h.07l.41-1.33,1.59-4.54h1.24ZM124.89,25h-5.58V15.42h1.81v8h3.77Zm3.82.16c-2.05,0-3.32-1.45-3.32-3.76s1.27-3.73,3.32-3.73S132,19.11,132,21.4,130.76,25.16,128.71,25.16Zm7.38,0c-2.05,0-3.32-1.45-3.32-3.76s1.27-3.73,3.32-3.73,3.33,1.44,3.33,3.73S138.14,25.16,136.09,25.16Zm8.32,0a2,2,0,0,1-2-1.36h-.06v3.94h-1.75v-9.9h1.75V19h.06a2,2,0,0,1,2-1.35c1.81,0,2.81,1.35,2.81,3.73S146.22,25.16,144.41,25.16Zm9.07-.16h-4.86V15.42h4.43a2.33,2.33,0,0,1,2.54,2.46,1.8,1.8,0,0,1-1.71,2.06V20A2.1,2.1,0,0,1,156,22.25,2.58,2.58,0,0,1,153.48,25Zm10,0h-1a1.31,1.31,0,0,1-1.33-1.24h-.08a1.93,1.93,0,0,1-2.08,1.4,2,2,0,0,1-2.28-2.11c0-1.47,1.11-2.19,3.06-2.19H161v-.53c0-.79-.4-1.26-1.33-1.26a1.84,1.84,0,0,0-1.63.91L157,19a3,3,0,0,1,2.8-1.37c1.94,0,3,.92,3,2.55V23.6h.72Zm3.91.16c-2.12,0-3.31-1.45-3.31-3.76s1.19-3.73,3.31-3.73a2.78,2.78,0,0,1,2.81,1.81l-1.44.65a1.33,1.33,0,0,0-1.37-1c-1,0-1.47.68-1.47,1.68v1.31c0,1,.49,1.67,1.47,1.67a1.54,1.54,0,0,0,1.51-1.12l1.34.64A2.8,2.8,0,0,1,167.42,25.16Zm8.41-.16L174,21.79l-1,1V25h-1.75V14.85H173V21h.07l.95-1.29,1.6-1.84h2l-2.47,2.77L177.91,25Z"/><path class="cls-1" d="M153,20.9h-2.53v2.56H153a1,1,0,0,0,1.1-1V22A1,1,0,0,0,153,20.9Z"/><path class="cls-1" d="M158.54,22.79V23c0,.58.4.87,1.09.87s1.41-.36,1.41-1v-.95h-1.13C159,21.91,158.54,22.23,158.54,22.79Z"/><path class="cls-1" d="M153.71,18.4V18a.93.93,0,0,0-1-1h-2.24v2.46h2.24A1,1,0,0,0,153.71,18.4Z"/></svg>