<?xml version="1.0" encoding="utf-8"?>
<!-- Generator: Adobe Illustrator 17.1.0, SVG Export Plug-In . SVG Version: 6.00 Build 0)  -->
<!DOCTYPE svg PUBLIC "-//W3C//DTD SVG 1.1//EN" "http://www.w3.org/Graphics/SVG/1.1/DTD/svg11.dtd">
<svg version="1.1" id="Layer_1" xmlns="http://www.w3.org/2000/svg" xmlns:xlink="http://www.w3.org/1999/xlink" x="0px" y="0px"
	 viewBox="0 0 483 284.531" enable-background="new 0 0 483 284.531" xml:space="preserve">
<g>
	<g>
		<g>
			<g>
				<polyline fill="#383838" points="280,284.531 280,258.176 311.487,240 343,258.176 343,284.531 				"/>
			</g>
			<g>
				<polygon fill="#383838" points="308,234.539 276.487,252.739 245,234.539 245,198.176 276.487,180 308,198.176 				"/>
			</g>
			<g>
				<polygon fill="#383838" points="273,174.539 241.487,192.739 210,174.539 210,138.176 241.487,120 273,138.176 				"/>
			</g>
			<g>
				<polygon fill="#383838" points="238,114.539 206.487,132.739 175,114.539 175,78.176 206.487,60 238,78.176 				"/>
			</g>
		</g>
		<g>
			<g>
				<polyline fill="#383838" points="210,284.531 210,258.176 241.487,240 273,258.176 273,284.531 				"/>
			</g>
			<g>
				<polygon fill="#383838" points="238,234.539 206.487,252.739 175,234.539 175,198.176 206.487,180 238,198.176 				"/>
			</g>
			<g>
				<polygon fill="#383838" points="203,174.539 171.487,192.739 140,174.539 140,138.176 171.487,120 203,138.176 				"/>
			</g>
			<g>
				<polygon fill="#383838" points="168,114.539 136.487,132.739 105,114.539 105,78.176 136.487,60 168,78.176 				"/>
			</g>
			<g>
				<polygon fill="#383838" points="133,54.539 101.487,72.739 70,54.539 70,18.176 101.487,0 133,18.176 				"/>
			</g>
		</g>
		<g>
			<g>
				<polyline fill="#383838" points="140,284.531 140,258.176 171.487,240 203,258.176 203,284.531 				"/>
			</g>
			<g>
				<polygon fill="#383838" points="168,234.539 136.487,252.739 105,234.539 105,198.176 136.487,180 168,198.176 				"/>
			</g>
			<g>
				<polygon fill="#383838" points="133,174.539 101.487,192.739 70,174.539 70,138.176 101.487,120 133,138.176 				"/>
			</g>
			<g>
				<polygon fill="#383838" points="98,114.539 66.487,132.739 35,114.539 35,78.176 66.487,60 98,78.176 				"/>
			</g>
			<g>
				<polygon fill="#383838" points="63,54.539 31.487,72.739 0,54.539 0,18.176 31.487,0 63,18.176 				"/>
			</g>
		</g>
		<g>
			<g>
				<polyline fill="#383838" points="70,284.531 70,258.176 101.487,240 133,258.176 133,284.531 				"/>
			</g>
			<g>
				<polygon fill="#383838" points="98,234.539 66.487,252.739 35,234.539 35,198.176 66.487,180 98,198.176 				"/>
			</g>
			<g>
				<polygon fill="#383838" points="63,174.539 31.487,192.739 0,174.539 0,138.176 31.487,120 63,138.176 				"/>
			</g>
		</g>
	</g>
	<g>
		<g>
			<g>
				<polygon fill="#383838" points="483,174.539 451.487,192.739 420,174.539 420,138.176 451.487,120 483,138.176 				"/>
			</g>
		</g>
		<g>
			<g>
				<polyline fill="#383838" points="420,284.531 420,258.176 451.487,240 483,258.176 483,284.531 				"/>
			</g>
			<g>
				<polygon fill="#383838" points="448,234.539 416.487,252.739 385,234.539 385,198.176 416.487,180 448,198.176 				"/>
			</g>
			<g>
				<polygon fill="#383838" points="413,174.539 381.487,192.739 350,174.539 350,138.176 381.487,120 413,138.176 				"/>
			</g>
			<g>
				<polygon fill="#383838" points="378,114.539 346.487,132.739 315,114.539 315,78.176 346.487,60 378,78.176 				"/>
			</g>
		</g>
		<g>
			<g>
				<polyline fill="#383838" points="350,284.531 350,258.176 381.487,240 413,258.176 413,284.531 				"/>
			</g>
			<g>
				<polygon fill="#383838" points="378,234.539 346.487,252.739 315,234.539 315,198.176 346.487,180 378,198.176 				"/>
			</g>
			<g>
				<polygon fill="#383838" points="343,174.539 311.487,192.739 280,174.539 280,138.176 311.487,120 343,138.176 				"/>
			</g>
			<g>
				<polygon fill="#383838" points="308,114.539 276.487,132.739 245,114.539 245,78.176 276.487,60 308,78.176 				"/>
			</g>
		</g>
	</g>
</g>
</svg>
