<?xml version="1.0" encoding="UTF-8" standalone="no"?>
<svg width="170px" height="120px" viewBox="0 0 170 120" version="1.1" xmlns="http://www.w3.org/2000/svg" xmlns:xlink="http://www.w3.org/1999/xlink" xmlns:sketch="http://www.bohemiancoding.com/sketch/ns">
    <!-- Generator: Sketch 3.0.4 (8053) - http://www.bohemiancoding.com/sketch -->
    <title>Artboard 1</title>
    <desc>Created with Sketch.</desc>
    <defs></defs>
    <g id="Page-1" stroke="none" stroke-width="1" fill="none" fill-rule="evenodd" sketch:type="MSPage">
        <g id="Artboard-1" sketch:type="MSArtboardGroup">
            <rect id="Rectangle-2" fill-opacity="0" fill="#FF0000" sketch:type="MSShapeGroup" x="0" y="0" width="170" height="100"></rect>
            <g id="Imported-Layers-+-Rectangle-1" sketch:type="MSLayerGroup" fill="#383838">
                <path d="M0,28.2607738 L0,119.5582 C54.2044484,70.5001767 79.365347,98.0638395 84.4970414,105.160623 C84.4970414,105.160623 84.8696556,106.04436 85,106.5802 C85.1049877,106.04436 85.5029586,105.160623 85.5029586,105.160623 C90.634653,98.0638395 115.795552,70.5001767 170,119.5582 L170,28.2607738 C170,28.2607738 127.583171,-21.8284012 85,11.3619093 C42.4168293,-21.8284012 0,28.2607738 0,28.2607738 Z M5,30.93905 L5,107.628888 C56.0159515,66.4201485 79.6967972,89.5736251 84.5266272,95.534923 C84.5266272,95.534923 84.8773229,96.2772627 85,96.7273682 C85.0988119,96.2772627 85.4733728,95.534923 85.4733728,95.534923 C90.3032028,89.5736251 113.984049,66.4201485 165,107.628888 L165,30.93905 C165,30.93905 125.078278,-11.135857 85,16.7440038 C44.9217217,-11.135857 5,30.93905 5,30.93905 Z" id="Imported-Layers" sketch:type="MSShapeGroup"></path>
                <rect id="Rectangle-1" sketch:type="MSShapeGroup" x="82" y="14.4" width="6" height="82.8"></rect>
            </g>
        </g>
    </g>
</svg>