<?xml version="1.0" encoding="UTF-8" standalone="no"?>
<svg width="940px" height="542px" viewBox="0 0 940 542" version="1.1" xmlns="http://www.w3.org/2000/svg" xmlns:xlink="http://www.w3.org/1999/xlink" xmlns:sketch="http://www.bohemiancoding.com/sketch/ns">
    <!-- Generator: Sketch 3.0.4 (8053) - http://www.bohemiancoding.com/sketch -->
    <title>Artboard 1</title>
    <desc>Created with Sketch.</desc>
    <defs></defs>
    <g id="Page-1" stroke="none" stroke-width="1" fill="none" fill-rule="evenodd" sketch:type="MSPage">
        <g id="Artboard-1" sketch:type="MSArtboardGroup" fill="#383838">
            <path d="M34.9922349,0 C15.6665572,0 0,15.6613903 0,35.002849 L0,618.997151 C0,638.328691 15.6768533,654 34.9922349,654 L905.007765,654 C924.333443,654 940,638.33861 940,618.997151 L940,35.002849 C940,15.6713093 924.323147,0 905.007765,0 L34.9922349,0 Z M86,86 L86,541 L856,541 L856,86 L86,86 Z M470,52 C474.970563,52 479,47.9705627 479,43 C479,38.0294373 474.970563,34 470,34 C465.029437,34 461,38.0294373 461,43 C461,47.9705627 465.029437,52 470,52 Z" id="Rectangle-1" sketch:type="MSShapeGroup"></path>
            <path d="M464,491.750174 L408,459.340986 L408,390 L444,390 L444,354 L456,354 L456,390 L484,390 L484,354 L496,354 L496,390 L533,390 L533,459.340986 L476,492.301693 L476,542 L464,542 L464,491.750174 L464,491.750174 Z" id="Imported-Layers" sketch:type="MSShapeGroup"></path>
            <path d="M360.625,263.15 C363.925017,263.15 366.649989,262.875003 368.8,262.325 C370.950011,261.774997 372.674994,261.025005 373.975,260.075 C375.275007,259.124995 376.174998,258.000006 376.675,256.7 C377.175003,255.399993 377.425,253.950008 377.425,252.35 C377.425,248.949983 375.825016,246.125011 372.625,243.875 C369.424984,241.624989 363.925039,239.200013 356.125,236.6 C352.724983,235.399994 349.325017,234.025008 345.925,232.475 C342.524983,230.924992 339.475013,228.975012 336.775,226.625 C334.074987,224.274988 331.875009,221.425017 330.175,218.075 C328.474991,214.724983 327.625,210.650024 327.625,205.85 C327.625,201.049976 328.524991,196.725019 330.325,192.875 C332.125009,189.024981 334.674983,185.750014 337.975,183.05 C341.275016,180.349986 345.274976,178.275007 349.975,176.825 C354.675024,175.374993 359.974971,174.65 365.875,174.65 C372.875035,174.65 378.924975,175.399992 384.025,176.9 C389.125025,178.400008 393.324984,180.049991 396.625,181.85 L389.875,200.3 C386.974986,198.799993 383.750018,197.475006 380.2,196.325 C376.649982,195.174994 372.375025,194.6 367.375,194.6 C361.774972,194.6 357.750012,195.374992 355.3,196.925 C352.849988,198.475008 351.625,200.849984 351.625,204.05 C351.625,205.95001 352.074995,207.549994 352.975,208.85 C353.875004,210.150007 355.149992,211.324995 356.8,212.375 C358.450008,213.425005 360.349989,214.374996 362.5,215.225 C364.650011,216.075004 367.024987,216.949995 369.625,217.85 C375.025027,219.85001 379.72498,221.82499 383.725,223.775 C387.72502,225.72501 391.049987,227.999987 393.7,230.6 C396.350013,233.200013 398.324994,236.249982 399.625,239.75 C400.925006,243.250018 401.575,247.499975 401.575,252.5 C401.575,262.200048 398.175034,269.724973 391.375,275.075 C384.574966,280.425027 374.325068,283.1 360.625,283.1 C356.024977,283.1 351.875019,282.825003 348.175,282.275 C344.474982,281.724997 341.200014,281.050004 338.35,280.25 C335.499986,279.449996 333.05001,278.600005 331,277.7 C328.94999,276.799996 327.225007,275.950004 325.825,275.15 L332.425,256.55 C335.525015,258.250009 339.349977,259.774993 343.9,261.125 C348.450023,262.475007 354.024967,263.15 360.625,263.15 Z M510.625,228.95 C510.625,237.950045 509.225014,245.799967 506.425,252.5 C503.624986,259.200034 499.650026,264.749978 494.5,269.15 C489.349974,273.550022 483.075037,276.849989 475.675,279.05 C468.274963,281.250011 459.975046,282.35 450.775,282.35 C446.574979,282.35 441.675028,282.175002 436.075,281.825 C430.474972,281.474998 424.975027,280.750005 419.575,279.65 L419.575,178.4 C424.975027,177.399995 430.599971,176.725002 436.45,176.375 C442.300029,176.024998 447.324979,175.85 451.525,175.85 C460.425045,175.85 468.499964,176.84999 475.75,178.85 C483.000036,180.85001 489.224974,183.999979 494.425,188.3 C499.625026,192.600021 503.624986,198.099966 506.425,204.8 C509.225014,211.500034 510.625,219.549953 510.625,228.95 Z M442.975,261.95 C444.075005,262.050001 445.349993,262.125 446.8,262.175 C448.250007,262.225 449.97499,262.25 451.975,262.25 C463.675058,262.25 472.349972,259.300029 478,253.4 C483.650028,247.499971 486.475,239.350052 486.475,228.95 C486.475,218.049946 483.775027,209.800028 478.375,204.2 C472.974973,198.599972 464.425058,195.8 452.725,195.8 C451.124992,195.8 449.475009,195.825 447.775,195.875 C446.074992,195.925 444.475008,196.049999 442.975,196.25 L442.975,261.95 Z M591.475,281 C589.374989,277.599983 586.900014,273.92502 584.05,269.975 C581.199986,266.02498 578.100017,262.07502 574.75,258.125 C571.399983,254.17498 567.925018,250.375018 564.325,246.725 C560.724982,243.074982 557.125018,239.850014 553.525,237.05 L553.525,281 L530.125,281 L530.125,177.05 L553.525,177.05 L553.525,216.35 C559.62503,209.949968 565.749969,203.275035 571.9,196.325 C578.050031,189.374965 583.774973,182.950029 589.075,177.05 L616.825,177.05 C609.724964,185.450042 602.600036,193.549961 595.45,201.35 C588.299964,209.150039 580.77504,216.99996 572.875,224.9 C581.175041,231.800034 589.199961,239.999953 596.95,249.5 C604.700039,259.000047 612.124965,269.499942 619.225,281 L591.475,281 Z" id="SDK" sketch:type="MSShapeGroup"></path>
        </g>
    </g>
</svg>