<svg id="Layer_1" data-name="Layer 1" xmlns="http://www.w3.org/2000/svg" viewBox="0 0 187 42"><defs><style>.cls-1{fill:#001956;}</style></defs><title>Powered-by-LoopBack-Badge-(outline-dark)</title><path class="cls-1" d="M184.71,1.33a1,1,0,0,1,1,1V39.71a1,1,0,0,1-1,1H2.29a1,1,0,0,1-1-1V2.29a1,1,0,0,1,1-1H184.71m0-1.33H2.29A2.28,2.28,0,0,0,0,2.29V39.71A2.28,2.28,0,0,0,2.29,42H184.71A2.28,2.28,0,0,0,187,39.71V2.29A2.28,2.28,0,0,0,184.71,0Z"/><path class="cls-1" d="M23.77,20.72"/><polygon class="cls-1" points="16.58 28.58 19.55 26.67 23.3 28.82 27.1 26.6 30.24 28.39 23.32 32.43 16.58 28.58"/><polygon class="cls-1" points="15.32 14.19 23.23 9.57 31.19 14.11 31.21 22.09 28.07 20.3 28.06 15.93 23.25 13.18 18.46 15.98 18.47 20.36 17.41 20.98 15.35 22.3 15.32 14.19"/><polygon class="cls-1" points="19.59 17.1 21.85 18.39 19.6 19.7 19.59 17.1"/><polygon class="cls-1" points="24.72 23.62 27.83 21.79 31.7 24 34.32 22.46 34.31 19.42 32.33 18.29 32.31 14.68 37.46 17.62 37.47 24.25 31.72 27.61 24.72 23.62"/><polygon class="cls-1" points="9.12 24.4 9.09 17.75 14.2 14.76 14.21 18.38 12.23 19.54 12.24 22.58 14.88 24.08 26.94 17.05 26.95 20.67 14.9 27.7 9.12 24.4"/><path class="cls-1" d="M47.14,25V15.42h4a2.55,2.55,0,0,1,2.71,2.82,2.55,2.55,0,0,1-2.71,2.81H48.47V25Zm1.33-5.13H51a1.21,1.21,0,0,0,1.36-1.29v-.69A1.21,1.21,0,0,0,51,16.6H48.47Z"/><path class="cls-1" d="M54.35,21.45c0-2.27,1.31-3.72,3.24-3.72s3.24,1.45,3.24,3.72-1.31,3.71-3.24,3.71S54.35,23.71,54.35,21.45Zm5.12.53V20.91a1.89,1.89,0,1,0-3.76,0V22a1.89,1.89,0,1,0,3.76,0Z"/><path class="cls-1" d="M61.42,17.89h1.23l.74,3,.72,2.93h0l.81-2.93.88-3H67l.91,3,.82,2.93h0l.67-2.93.76-3h1.19L69.46,25H68l-1-3.34-.61-2.08h0l-.59,2.08-1,3.34H63.32Z"/><path class="cls-1" d="M71.94,21.45c0-2.25,1.25-3.72,3.22-3.72s3.12,1.51,3.12,3.5v.53h-5v.29a1.89,1.89,0,0,0,2,2,2.06,2.06,0,0,0,1.92-1.15l.83.7a3.13,3.13,0,0,1-2.86,1.53C73.19,25.16,71.94,23.7,71.94,21.45Zm1.33-.68v.1h3.65v-.14a1.76,1.76,0,0,0-1.76-2A1.88,1.88,0,0,0,73.27,20.77Z"/><path class="cls-1" d="M79.68,25V17.89H81v1.36H81a2,2,0,0,1,2-1.36h.43v1.28h-.63c-1.18,0-1.87.46-1.87,1.16V25Z"/><path class="cls-1" d="M83.9,21.45c0-2.25,1.25-3.72,3.23-3.72s3.11,1.51,3.11,3.5v.53h-5v.29a1.89,1.89,0,0,0,2,2,2.07,2.07,0,0,0,1.92-1.15l.82.7a3.1,3.1,0,0,1-2.85,1.53C85.15,25.16,83.9,23.7,83.9,21.45Zm1.33-.68v.1h3.65v-.14a1.76,1.76,0,0,0-1.75-2A1.88,1.88,0,0,0,85.23,20.77Z"/><path class="cls-1" d="M96.14,23.83h-.06a2,2,0,0,1-2,1.33c-1.78,0-2.85-1.41-2.85-3.71s1.07-3.72,2.85-3.72a2,2,0,0,1,2,1.33h.06V14.85h1.27V25H96.14Zm0-1.08V20.14c0-.75-.77-1.3-1.73-1.3a1.83,1.83,0,0,0-1.87,2v1.21a1.83,1.83,0,0,0,1.87,2C95.37,24.05,96.14,23.5,96.14,22.75Z"/><path class="cls-1" d="M102.22,14.85h1.27v4.21h.06a2,2,0,0,1,2-1.33c1.78,0,2.85,1.41,2.85,3.72s-1.07,3.71-2.85,3.71a2,2,0,0,1-2-1.33h-.06V25h-1.27Zm4.87,7.2V20.84a1.83,1.83,0,0,0-1.87-2c-1,0-1.73.55-1.73,1.3v2.61c0,.75.77,1.3,1.73,1.3A1.83,1.83,0,0,0,107.09,22.05Z"/><path class="cls-1" d="M114.19,17.89h1.24l-3.09,8.66c-.33.89-.67,1.19-1.76,1.19h-.7V26.66h1.17l.48-1.37-2.63-7.4h1.27l1.58,4.54.37,1.33h.07l.41-1.33Z"/><path class="cls-1" d="M119.31,25V15.42h1.81v8h3.77V25Z"/><path class="cls-1" d="M125.39,21.4c0-2.29,1.27-3.73,3.32-3.73S132,19.11,132,21.4s-1.28,3.76-3.33,3.76S125.39,23.71,125.39,21.4Zm4.81.68V20.75c0-1.07-.58-1.66-1.49-1.66s-1.49.59-1.49,1.66v1.33c0,1.08.58,1.67,1.49,1.67S130.2,23.16,130.2,22.08Z"/><path class="cls-1" d="M132.77,21.4c0-2.29,1.27-3.73,3.32-3.73s3.33,1.44,3.33,3.73-1.28,3.76-3.33,3.76S132.77,23.71,132.77,21.4Zm4.81.68V20.75c0-1.07-.58-1.66-1.49-1.66s-1.49.59-1.49,1.66v1.33c0,1.08.58,1.67,1.49,1.67S137.58,23.16,137.58,22.08Z"/><path class="cls-1" d="M140.63,17.84h1.75V19h.06a2,2,0,0,1,2-1.35c1.81,0,2.81,1.35,2.81,3.73s-1,3.76-2.81,3.76a2,2,0,0,1-2-1.35h-.06v3.93h-1.75Zm4.76,4.2V20.8a1.54,1.54,0,0,0-1.54-1.69c-.84,0-1.47.46-1.47,1.16v2.27c0,.74.63,1.17,1.47,1.17A1.52,1.52,0,0,0,145.39,22Z"/><path class="cls-1" d="M148.62,15.42h4.43a2.33,2.33,0,0,1,2.54,2.46,1.8,1.8,0,0,1-1.71,2.06V20A2.1,2.1,0,0,1,156,22.25,2.58,2.58,0,0,1,153.48,25h-4.86Zm1.81,4h2.24a1,1,0,0,0,1-1V18a.93.93,0,0,0-1-1h-2.24Zm0,4H153a1,1,0,0,0,1.1-1V22A1,1,0,0,0,153,20.9h-2.53Z"/><path class="cls-1" d="M156.76,23.05c0-1.47,1.11-2.19,3.06-2.19H161v-.53c0-.79-.4-1.26-1.33-1.26a1.84,1.84,0,0,0-1.63.91L157,19a3,3,0,0,1,2.8-1.37c1.94,0,3,.92,3,2.55V23.6h.72V25h-1a1.31,1.31,0,0,1-1.33-1.24h-.08a1.93,1.93,0,0,1-2.08,1.4A2,2,0,0,1,156.76,23.05Zm4.28-.19v-.95h-1.13c-.92,0-1.37.32-1.37.88V23c0,.58.4.87,1.09.87S161,23.53,161,22.86Z"/><path class="cls-1" d="M164.11,21.4c0-2.29,1.19-3.73,3.31-3.73a2.78,2.78,0,0,1,2.81,1.81l-1.44.65a1.33,1.33,0,0,0-1.37-1c-1,0-1.47.68-1.47,1.68v1.31c0,1,.49,1.67,1.47,1.67a1.54,1.54,0,0,0,1.51-1.12l1.34.64a2.8,2.8,0,0,1-2.85,1.89C165.3,25.16,164.11,23.71,164.11,21.4Z"/><path class="cls-1" d="M171.29,14.85H173V21h.07l.95-1.29,1.6-1.84h2l-2.47,2.77L177.91,25h-2.08L174,21.79l-1,1V25h-1.75Z"/></svg>