<?xml version="1.0" encoding="UTF-8"?>
<svg width="1443px" height="733px" viewBox="0 0 1443 733" version="1.1" xmlns="http://www.w3.org/2000/svg" xmlns:xlink="http://www.w3.org/1999/xlink">
    <!-- Generator: Sketch 49.3 (51167) - http://www.bohemiancoding.com/sketch -->
    <title>Hero Illustration</title>
    <desc>Created with Sketch.</desc>
    <defs>
        <polygon id="path-1" points="0.625 0.690222072 49.6610033 0.690222072 49.6610033 144.0752 0.625 144.0752"></polygon>
        <polygon id="path-3" points="0.625002126 0.929839936 49.8781562 0.929839936 49.8781562 49.7246 0.625002126 49.7246"></polygon>
        <polygon id="path-5" points="0.625451674 0.813742454 49.8689938 0.813742454 49.8689938 49.3057 0.625451674 49.3057"></polygon>
    </defs>
    <g id="SPECS" stroke="none" stroke-width="1" fill="none" fill-rule="evenodd">
        <g id="LB4-SPEC-Page-Home" transform="translate(-303.000000, -335.000000)">
            <g id="Homepage-Comp" transform="translate(303.000000, 265.000000)">
                <g id="(New)-Hero">
                    <g id="Dot-Pattern">
                        <g id="Hero-Illustration" transform="translate(0.000000, 70.000000)">
                            <path d="M180.8369,501.9328 C176.2879,501.9328 172.5869,505.6338 172.5869,510.1828 C172.5869,514.7318 176.2879,518.4328 180.8369,518.4328 C185.3859,518.4328 189.0869,514.7318 189.0869,510.1828 C189.0869,505.6338 185.3859,501.9328 180.8369,501.9328 M180.8369,519.9328 C175.4609,519.9328 171.0869,515.5588 171.0869,510.1828 C171.0869,504.8068 175.4609,500.4328 180.8369,500.4328 C186.2129,500.4328 190.5869,504.8068 190.5869,510.1828 C190.5869,515.5588 186.2129,519.9328 180.8369,519.9328" id="Fill-1" fill="#FFFFFF"></path>
                            <path d="M180.8369,507.9728 C179.8599,507.9728 179.0659,508.7678 179.0659,509.7448 C179.0659,510.7218 179.8599,511.5168 180.8369,511.5168 C181.8149,511.5168 182.6089,510.7218 182.6089,509.7448 C182.6089,508.7678 181.8149,507.9728 180.8369,507.9728 M180.8369,513.0168 C179.0329,513.0168 177.5659,511.5488 177.5659,509.7448 C177.5659,507.9408 179.0329,506.4728 180.8369,506.4728 C182.6419,506.4728 184.1089,507.9408 184.1089,509.7448 C184.1089,511.5488 182.6419,513.0168 180.8369,513.0168" id="Fill-3" fill="#FFFFFF"></path>
                            <path d="M184.6328,518.8761 C184.2188,518.8761 183.8828,518.5401 183.8828,518.1261 C183.8828,516.4461 182.5168,515.0791 180.8368,515.0791 C179.1568,515.0791 177.7908,516.4461 177.7908,518.1261 C177.7908,518.5401 177.4548,518.8761 177.0408,518.8761 C176.6268,518.8761 176.2908,518.5401 176.2908,518.1261 C176.2908,515.6191 178.3298,513.5791 180.8368,513.5791 C183.3438,513.5791 185.3828,515.6191 185.3828,518.1261 C185.3828,518.5401 185.0468,518.8761 184.6328,518.8761" id="Fill-5" fill="#FFFFFF"></path>
                            <path d="M89.9033,323.9533 C89.6433,323.9533 89.3903,323.8183 89.2523,323.5763 C89.0463,323.2183 89.1703,322.7593 89.5293,322.5533 L178.3043,271.5883 L178.3043,183.0913 C178.3043,182.6773 178.6403,182.3413 179.0543,182.3413 C179.4683,182.3413 179.8043,182.6773 179.8043,183.0913 L179.8043,272.0223 C179.8043,272.2913 179.6613,272.5393 179.4273,272.6733 L90.2753,323.8533 C90.1583,323.9213 90.0293,323.9533 89.9033,323.9533" id="Fill-7" fill="#FFFFFF"></path>
                            <path d="M179.0547,475.1369 C178.9257,475.1369 178.7967,475.1039 178.6817,475.0369 L89.5297,423.8579 C89.1697,423.6519 89.0457,423.1929 89.2517,422.8339 C89.4587,422.4749 89.9167,422.3509 90.2757,422.5569 L179.0547,473.5219 L255.3997,429.6959 C255.7577,429.4889 256.2167,429.6129 256.4227,429.9729 C256.6287,430.3309 256.5047,430.7899 256.1457,430.9959 L179.4277,475.0369 C179.3127,475.1039 179.1837,475.1369 179.0547,475.1369" id="Fill-9" fill="#FFFFFF"></path>
                            <path d="M980.7354,349.6007 C980.4754,349.6007 980.2224,349.4657 980.0844,349.2237 C979.8784,348.8657 980.0024,348.4067 980.3614,348.2007 L1062.9344,300.7967 L1062.9344,218.5437 C1062.9344,218.1297 1063.2704,217.7937 1063.6844,217.7937 C1064.0984,217.7937 1064.4344,218.1297 1064.4344,218.5437 L1064.4344,301.2317 C1064.4344,301.4997 1064.2914,301.7477 1064.0574,301.8817 L981.1074,349.5007 C980.9904,349.5687 980.8614,349.6007 980.7354,349.6007" id="Fill-11" fill="#FFFFFF"></path>
                            <path d="M179.0537,475.2062 C178.9267,475.2062 178.7977,475.1742 178.6797,475.1052 L89.5277,423.5952 C89.1687,423.3882 89.0457,422.9292 89.2527,422.5702 C89.4587,422.2132 89.9177,422.0882 90.2777,422.2962 L179.4297,473.8072 C179.7877,474.0142 179.9107,474.4732 179.7037,474.8312 C179.5657,475.0712 179.3137,475.2062 179.0537,475.2062" id="Fill-13" fill="#FFFFFF"></path>
                            <path d="M89.9014,629.4074 C89.7754,629.4074 89.6464,629.3754 89.5294,629.3074 L0.3774,578.1274 C0.1434,577.9934 0.0004,577.7454 0.0004,577.4764 L0.0004,474.4564 C0.0004,474.0424 0.3364,473.7064 0.7504,473.7064 C1.1644,473.7064 1.5004,474.0424 1.5004,474.4564 L1.5004,577.0424 L90.2754,628.0074 C90.6344,628.2134 90.7584,628.6724 90.5524,629.0304 C90.4144,629.2724 90.1614,629.4074 89.9014,629.4074" id="Fill-15" fill="#FFFFFF"></path>
                            <path d="M969.3193,630.0568 C969.1933,630.0568 969.0643,630.0248 968.9473,629.9568 L897.4123,588.8908 C897.1783,588.7568 897.0353,588.5088 897.0353,588.2408 L897.0353,492.3868 C897.0353,491.9728 897.3713,491.6368 897.7853,491.6368 C898.1993,491.6368 898.5353,491.9728 898.5353,492.3868 L898.5353,587.8058 L969.6933,628.6568 C970.0523,628.8628 970.1763,629.3218 969.9703,629.6798 C969.8323,629.9218 969.5793,630.0568 969.3193,630.0568" id="Fill-17" fill="#FFFFFF"></path>
                            <path d="M1063.6846,588.9904 C1063.2706,588.9904 1062.9346,588.6544 1062.9346,588.2404 L1062.9346,492.8194 L980.3596,445.1094 C980.0006,444.9024 979.8776,444.4434 980.0846,444.0854 C980.2916,443.7274 980.7486,443.6024 981.1096,443.8104 L1064.0596,491.7374 C1064.2916,491.8714 1064.4346,492.1194 1064.4346,492.3864 L1064.4346,588.2404 C1064.4346,588.6544 1064.0986,588.9904 1063.6846,588.9904" id="Fill-19" fill="#FFFFFF"></path>
                            <path d="M1146.6328,349.6007 C1146.5058,349.6007 1146.3768,349.5687 1146.2588,349.4997 L1063.6848,301.7897 L981.1098,349.4997 C980.7488,349.7087 980.2918,349.5827 980.0848,349.2257 C979.8778,348.8677 980.0008,348.4087 980.3598,348.2017 L1063.3098,300.2747 C1063.5418,300.1397 1063.8268,300.1397 1064.0598,300.2747 L1147.0088,348.2017 C1147.3668,348.4087 1147.4898,348.8677 1147.2828,349.2257 C1147.1448,349.4657 1146.8928,349.6007 1146.6328,349.6007" id="Fill-21" fill="#FFFFFF"></path>
                            <path d="M1063.6846,493.0734 C1063.5556,493.0734 1063.4266,493.0404 1063.3116,492.9734 L980.3616,445.3534 C980.0016,445.1474 979.8776,444.6884 980.0836,444.3304 C980.2896,443.9704 980.7506,443.8474 981.1076,444.0524 L1063.6846,491.4584 L1134.8486,450.6044 C1135.2056,450.3974 1135.6656,450.5214 1135.8726,450.8824 C1136.0786,451.2404 1135.9546,451.6994 1135.5946,451.9054 L1064.0576,492.9734 C1063.9426,493.0404 1063.8136,493.0734 1063.6846,493.0734" id="Fill-23" fill="#FFFFFF"></path>
                            <path d="M1146.6338,158.4445 C1146.2198,158.4445 1145.8838,158.1085 1145.8838,157.6945 L1145.8838,62.2745 L1074.7078,21.1505 C1074.3498,20.9435 1074.2268,20.4845 1074.4338,20.1265 C1074.6398,19.7685 1075.0968,19.6425 1075.4578,19.8515 L1147.0088,61.1925 C1147.2408,61.3265 1147.3838,61.5745 1147.3838,61.8415 L1147.3838,157.6945 C1147.3838,158.1085 1147.0478,158.4445 1146.6338,158.4445" id="Fill-25" fill="#FFFFFF"></path>
                            <path d="M1051.8477,199.2697 C1051.7217,199.2697 1051.5927,199.2377 1051.4757,199.1697 L980.3617,158.3447 C980.1277,158.2107 979.9847,157.9627 979.9847,157.6947 L979.9847,61.8417 C979.9847,61.4277 980.3207,61.0917 980.7347,61.0917 C981.1487,61.0917 981.4847,61.4277 981.4847,61.8417 L981.4847,157.2597 L1052.2217,197.8697 C1052.5807,198.0757 1052.7047,198.5347 1052.4987,198.8927 C1052.3607,199.1347 1052.1077,199.2697 1051.8477,199.2697" id="Fill-27" fill="#FFFFFF"></path>
                            <path d="M89.9023,732.758 C89.4883,732.758 89.1523,732.422 89.1523,732.008 L89.1523,628.987 C89.1523,628.573 89.4883,628.237 89.9023,628.237 C90.3163,628.237 90.6523,628.573 90.6523,628.987 L90.6523,732.008 C90.6523,732.422 90.3163,732.758 89.9023,732.758" id="Fill-29" fill="#FFFFFF"></path>
                            <path d="M268.208,732.758 C267.794,732.758 267.458,732.422 267.458,732.008 L267.458,629.42 L190.445,584.924 C190.087,584.717 189.964,584.258 190.171,583.9 C190.377,583.542 190.835,583.416 191.195,583.625 L268.583,628.338 C268.815,628.472 268.958,628.72 268.958,628.987 L268.958,732.008 C268.958,732.422 268.622,732.758 268.208,732.758" id="Fill-31" fill="#FFFFFF"></path>
                            <path d="M171.1943,272.0226 C171.1943,276.3646 174.7143,279.8836 179.0543,279.8836 C183.3963,279.8836 186.9163,276.3646 186.9163,272.0226 C186.9163,267.6806 183.3963,264.1616 179.0543,264.1616 C174.7143,264.1616 171.1943,267.6806 171.1943,272.0226" id="Fill-33" fill="#FFFFFF"></path>
                            <path d="M260.3467,115.1935 C260.3467,119.5355 263.8667,123.0545 268.2077,123.0545 C272.5497,123.0545 276.0697,119.5355 276.0697,115.1935 C276.0697,110.8525 272.5497,107.3335 268.2077,107.3335 C263.8667,107.3335 260.3467,110.8525 260.3467,115.1935" id="Fill-35" fill="#FFFFFF"></path>
                            <path d="M988.0488,157.4513 C988.0488,161.4913 984.7748,164.7653 980.7348,164.7653 C976.6948,164.7653 973.4198,161.4913 973.4198,157.4513 C973.4198,153.4123 976.6948,150.1383 980.7348,150.1383 C984.7748,150.1383 988.0488,153.4123 988.0488,157.4513" id="Fill-37" fill="#FFFFFF"></path>
                            <path d="M1070.998,300.924 C1070.998,304.963 1067.724,308.238 1063.685,308.238 C1059.644,308.238 1056.37,304.963 1056.37,300.924 C1056.37,296.885 1059.644,293.61 1063.685,293.61 C1067.724,293.61 1070.998,296.885 1070.998,300.924" id="Fill-39" fill="#FFFFFF"></path>
                            <path d="M1153.9482,157.4513 C1153.9482,161.4913 1150.6742,164.7653 1146.6342,164.7653 C1142.5942,164.7653 1139.3202,161.4913 1139.3202,157.4513 C1139.3202,153.4123 1142.5942,150.1383 1146.6342,150.1383 C1150.6742,150.1383 1153.9482,153.4123 1153.9482,157.4513" id="Fill-41" fill="#FFFFFF"></path>
                            <path d="M1070.998,492.3234 C1070.998,496.3624 1067.724,499.6364 1063.685,499.6364 C1059.644,499.6364 1056.37,496.3624 1056.37,492.3234 C1056.37,488.2834 1059.644,485.0094 1063.685,485.0094 C1067.724,485.0094 1070.998,488.2834 1070.998,492.3234" id="Fill-43" fill="#FFFFFF"></path>
                            <path d="M988.0488,348.8507 C988.0488,352.8897 984.7748,356.1647 980.7348,356.1647 C976.6948,356.1647 973.4198,352.8897 973.4198,348.8507 C973.4198,344.8107 976.6948,341.5367 980.7348,341.5367 C984.7748,341.5367 988.0488,344.8107 988.0488,348.8507" id="Fill-45" fill="#FFFFFF"></path>
                            <path d="M905.0986,492.3869 C905.0986,496.4259 901.8246,499.7009 897.7856,499.7009 C893.7446,499.7009 890.4706,496.4259 890.4706,492.3869 C890.4706,488.3479 893.7446,485.0729 897.7856,485.0729 C901.8246,485.0729 905.0986,488.3479 905.0986,492.3869" id="Fill-47" fill="#FFFFFF"></path>
                            <path d="M1070.998,590.299 C1070.998,594.339 1067.724,597.613 1063.685,597.613 C1059.644,597.613 1056.37,594.339 1056.37,590.299 C1056.37,586.26 1059.644,582.986 1063.685,582.986 C1067.724,582.986 1070.998,586.26 1070.998,590.299" id="Fill-49" fill="#FFFFFF"></path>
                            <path d="M1153.9482,348.8507 C1153.9482,352.8897 1150.6742,356.1647 1146.6342,356.1647 C1142.5942,356.1647 1139.3202,352.8897 1139.3202,348.8507 C1139.3202,344.8107 1142.5942,341.5367 1146.6342,341.5367 C1150.6742,341.5367 1153.9482,344.8107 1153.9482,348.8507" id="Fill-51" fill="#FFFFFF"></path>
                            <path d="M1236.8984,492.3234 C1236.8984,496.3624 1233.6234,499.6364 1229.5844,499.6364 C1225.5444,499.6364 1222.2694,496.3624 1222.2694,492.3234 C1222.2694,488.2834 1225.5444,485.0094 1229.5844,485.0094 C1233.6234,485.0094 1236.8984,488.2834 1236.8984,492.3234" id="Fill-53" fill="#FFFFFF"></path>
                            <path d="M1153.9482,635.5519 C1153.9482,639.5919 1150.6742,642.8659 1146.6342,642.8659 C1142.5942,642.8659 1139.3202,639.5919 1139.3202,635.5519 C1139.3202,631.5129 1142.5942,628.2379 1146.6342,628.2379 C1150.6742,628.2379 1153.9482,631.5129 1153.9482,635.5519" id="Fill-55" fill="#FFFFFF"></path>
                            <path d="M905.0986,588.2404 C905.0986,592.2794 901.8246,595.5534 897.7856,595.5534 C893.7446,595.5534 890.4706,592.2794 890.4706,588.2404 C890.4706,584.2004 893.7446,580.9264 897.7856,580.9264 C901.8246,580.9264 905.0986,584.2004 905.0986,588.2404" id="Fill-57" fill="#FFFFFF"></path>
                            <path d="M82.041,628.9875 C82.041,633.3295 85.561,636.8485 89.902,636.8485 C94.244,636.8485 97.764,633.3295 97.764,628.9875 C97.764,624.6455 94.244,621.1265 89.902,621.1265 C85.561,621.1265 82.041,624.6455 82.041,628.9875" id="Fill-59" fill="#FFFFFF"></path>
                            <path d="M171.1943,474.4562 C171.1943,478.7972 174.7143,482.3162 179.0543,482.3162 C183.3963,482.3162 186.9163,478.7972 186.9163,474.4562 C186.9163,470.1142 183.3963,466.5952 179.0543,466.5952 C174.7143,466.5952 171.1943,470.1142 171.1943,474.4562" id="Fill-61" fill="#FFFFFF"></path>
                            <path d="M179.0547,563.0138 C171.6657,563.0138 165.6557,569.0248 165.6557,576.4128 C165.6557,583.8018 171.6657,589.8138 179.0547,589.8138 C186.4437,589.8138 192.4547,583.8018 192.4547,576.4128 C192.4547,569.0248 186.4437,563.0138 179.0547,563.0138 M179.0547,591.3138 C170.8387,591.3138 164.1557,584.6288 164.1557,576.4128 C164.1557,568.1978 170.8387,561.5138 179.0547,561.5138 C187.2707,561.5138 193.9547,568.1978 193.9547,576.4128 C193.9547,584.6288 187.2707,591.3138 179.0547,591.3138" id="Fill-63" fill="#FFFFFF"></path>
                            <path d="M179.0547,572.5099 C177.2827,572.5099 175.8397,573.9519 175.8397,575.7249 C175.8397,577.4979 177.2827,578.9409 179.0547,578.9409 C180.8277,578.9409 182.2707,577.4979 182.2707,575.7249 C182.2707,573.9519 180.8277,572.5099 179.0547,572.5099 M179.0547,580.4409 C176.4547,580.4409 174.3397,578.3249 174.3397,575.7249 C174.3397,573.1249 176.4547,571.0099 179.0547,571.0099 C181.6557,571.0099 183.7707,573.1249 183.7707,575.7249 C183.7707,578.3249 181.6557,580.4409 179.0547,580.4409" id="Fill-65" fill="#FFFFFF"></path>
                            <path d="M185.0234,589.6515 C184.6094,589.6515 184.2734,589.3155 184.2734,588.9015 C184.2734,586.0235 181.9324,583.6825 179.0544,583.6825 C176.1774,583.6825 173.8364,586.0235 173.8364,588.9015 C173.8364,589.3155 173.5014,589.6515 173.0864,589.6515 C172.6724,589.6515 172.3364,589.3155 172.3364,588.9015 C172.3364,585.1965 175.3504,582.1825 179.0544,582.1825 C182.7594,582.1825 185.7734,585.1965 185.7734,588.9015 C185.7734,589.3155 185.4374,589.6515 185.0234,589.6515" id="Fill-67" fill="#FFFFFF"></path>
                            <path d="M1312.5332,623.7511 C1305.6872,623.7511 1300.1182,629.3201 1300.1182,636.1661 C1300.1182,643.0131 1305.6872,648.5821 1312.5332,648.5821 C1319.3802,648.5821 1324.9492,643.0131 1324.9492,636.1661 C1324.9492,629.3201 1319.3802,623.7511 1312.5332,623.7511 M1312.5332,650.0821 C1304.8602,650.0821 1298.6182,643.8391 1298.6182,636.1661 C1298.6182,628.4931 1304.8602,622.2511 1312.5332,622.2511 C1320.2062,622.2511 1326.4492,628.4931 1326.4492,636.1661 C1326.4492,643.8391 1320.2062,650.0821 1312.5332,650.0821" id="Fill-69" fill="#FFFFFF"></path>
                            <path d="M1312.5332,632.5871 C1310.9132,632.5871 1309.5952,633.9051 1309.5952,635.5251 C1309.5952,637.1471 1310.9132,638.4651 1312.5332,638.4651 C1314.1542,638.4651 1315.4722,637.1471 1315.4722,635.5251 C1315.4722,633.9051 1314.1542,632.5871 1312.5332,632.5871 M1312.5332,639.9651 C1310.0862,639.9651 1308.0952,637.9741 1308.0952,635.5251 C1308.0952,633.0781 1310.0862,631.0871 1312.5332,631.0871 C1314.9812,631.0871 1316.9722,633.0781 1316.9722,635.5251 C1316.9722,637.9741 1314.9812,639.9651 1312.5332,639.9651" id="Fill-71" fill="#FFFFFF"></path>
                            <path d="M1318.0869,648.5353 C1317.6729,648.5353 1317.3369,648.1993 1317.3369,647.7853 C1317.3369,645.1373 1315.1819,642.9813 1312.5329,642.9813 C1309.8849,642.9813 1307.7309,645.1373 1307.7309,647.7853 C1307.7309,648.1993 1307.3949,648.5353 1306.9809,648.5353 C1306.5659,648.5353 1306.2309,648.1993 1306.2309,647.7853 C1306.2309,644.3093 1309.0579,641.4813 1312.5329,641.4813 C1316.0089,641.4813 1318.8369,644.3093 1318.8369,647.7853 C1318.8369,648.1993 1318.5009,648.5353 1318.0869,648.5353" id="Fill-73" fill="#FFFFFF"></path>
                            <path d="M268.208,409.8068 C260.819,409.8068 254.808,415.8188 254.808,423.2068 C254.808,430.5958 260.819,436.6068 268.208,436.6068 C275.597,436.6068 281.607,430.5958 281.607,423.2068 C281.607,415.8188 275.597,409.8068 268.208,409.8068 M268.208,438.1068 C259.992,438.1068 253.308,431.4228 253.308,423.2068 C253.308,414.9918 259.992,408.3068 268.208,408.3068 C276.424,408.3068 283.107,414.9918 283.107,423.2068 C283.107,431.4228 276.424,438.1068 268.208,438.1068" id="Fill-75" fill="#FFFFFF"></path>
                            <path d="M268.208,419.3029 C266.435,419.3029 264.992,420.7449 264.992,422.5189 C264.992,424.2909 266.435,425.7339 268.208,425.7339 C269.98,425.7339 271.423,424.2909 271.423,422.5189 C271.423,420.7449 269.98,419.3029 268.208,419.3029 M268.208,427.2339 C265.607,427.2339 263.492,425.1179 263.492,422.5189 C263.492,419.9179 265.607,417.8029 268.208,417.8029 C270.808,417.8029 272.923,419.9179 272.923,422.5189 C272.923,425.1179 270.808,427.2339 268.208,427.2339" id="Fill-77" fill="#FFFFFF"></path>
                            <path d="M274.1758,436.4445 C273.7618,436.4445 273.4258,436.1085 273.4258,435.6945 C273.4258,432.8165 271.0848,430.4755 268.2078,430.4755 C265.3298,430.4755 262.9888,432.8165 262.9888,435.6945 C262.9888,436.1085 262.6538,436.4445 262.2388,436.4445 C261.8248,436.4445 261.4888,436.1085 261.4888,435.6945 C261.4888,431.9895 264.5028,428.9755 268.2078,428.9755 C271.9118,428.9755 274.9258,431.9895 274.9258,435.6945 C274.9258,436.1085 274.5898,436.4445 274.1758,436.4445" id="Fill-79" fill="#FFFFFF"></path>
                            <path d="M535.666,461.0558 C528.277,461.0558 522.266,467.0678 522.266,474.4558 C522.266,481.8448 528.277,487.8558 535.666,487.8558 C543.055,487.8558 549.065,481.8448 549.065,474.4558 C549.065,467.0678 543.055,461.0558 535.666,461.0558 M535.666,489.3558 C527.45,489.3558 520.766,482.6718 520.766,474.4558 C520.766,466.2408 527.45,459.5558 535.666,459.5558 C543.882,459.5558 550.565,466.2408 550.565,474.4558 C550.565,482.6718 543.882,489.3558 535.666,489.3558" id="Fill-81" fill="#FFFFFF"></path>
                            <path d="M535.666,470.5519 C533.893,470.5519 532.45,471.9939 532.45,473.7679 C532.45,475.5399 533.893,476.9829 535.666,476.9829 C537.438,476.9829 538.881,475.5399 538.881,473.7679 C538.881,471.9939 537.438,470.5519 535.666,470.5519 M535.666,478.4829 C533.065,478.4829 530.95,476.3669 530.95,473.7679 C530.95,471.1669 533.065,469.0519 535.666,469.0519 C538.266,469.0519 540.381,471.1669 540.381,473.7679 C540.381,476.3669 538.266,478.4829 535.666,478.4829" id="Fill-83" fill="#FFFFFF"></path>
                            <path d="M541.6338,487.6935 C541.2198,487.6935 540.8838,487.3575 540.8838,486.9435 C540.8838,484.0655 538.5428,481.7245 535.6658,481.7245 C532.7878,481.7245 530.4468,484.0655 530.4468,486.9435 C530.4468,487.3575 530.1118,487.6935 529.6968,487.6935 C529.2828,487.6935 528.9468,487.3575 528.9468,486.9435 C528.9468,483.2385 531.9608,480.2245 535.6658,480.2245 C539.3698,480.2245 542.3838,483.2385 542.3838,486.9435 C542.3838,487.3575 542.0478,487.6935 541.6338,487.6935" id="Fill-85" fill="#FFFFFF"></path>
                            <path d="M357.3604,152.9738 C349.9714,152.9738 343.9604,158.9858 343.9604,166.3738 C343.9604,173.7628 349.9714,179.7748 357.3604,179.7748 C364.7494,179.7748 370.7604,173.7628 370.7604,166.3738 C370.7604,158.9858 364.7494,152.9738 357.3604,152.9738 M357.3604,181.2748 C349.1444,181.2748 342.4604,174.5898 342.4604,166.3738 C342.4604,158.1588 349.1444,151.4738 357.3604,151.4738 C365.5764,151.4738 372.2604,158.1588 372.2604,166.3738 C372.2604,174.5898 365.5764,181.2748 357.3604,181.2748" id="Fill-87" fill="#FFFFFF"></path>
                            <path d="M357.3604,162.4709 C355.5884,162.4709 354.1454,163.9129 354.1454,165.6859 C354.1454,167.4579 355.5884,168.9009 357.3604,168.9009 C359.1324,168.9009 360.5754,167.4579 360.5754,165.6859 C360.5754,163.9129 359.1324,162.4709 357.3604,162.4709 M357.3604,170.4009 C354.7604,170.4009 352.6454,168.2849 352.6454,165.6859 C352.6454,163.0859 354.7604,160.9709 357.3604,160.9709 C359.9604,160.9709 362.0754,163.0859 362.0754,165.6859 C362.0754,168.2849 359.9604,170.4009 357.3604,170.4009" id="Fill-89" fill="#FFFFFF"></path>
                            <path d="M363.3291,179.6115 C362.9151,179.6115 362.5791,179.2755 362.5791,178.8615 C362.5791,175.9845 360.2381,173.6435 357.3601,173.6435 C354.4831,173.6435 352.1421,175.9845 352.1421,178.8615 C352.1421,179.2755 351.8071,179.6115 351.3921,179.6115 C350.9781,179.6115 350.6421,179.2755 350.6421,178.8615 C350.6421,175.1575 353.6561,172.1435 357.3601,172.1435 C361.0651,172.1435 364.0791,175.1575 364.0791,178.8615 C364.0791,179.2755 363.7431,179.6115 363.3291,179.6115" id="Fill-91" fill="#FFFFFF"></path>
                            <path d="M1063.6846,192.963 C1056.8376,192.963 1051.2686,198.532 1051.2686,205.378 C1051.2686,212.225 1056.8376,217.794 1063.6846,217.794 C1070.5306,217.794 1076.0996,212.225 1076.0996,205.378 C1076.0996,198.532 1070.5306,192.963 1063.6846,192.963 M1063.6846,219.294 C1056.0116,219.294 1049.7686,213.051 1049.7686,205.378 C1049.7686,197.705 1056.0116,191.463 1063.6846,191.463 C1071.3576,191.463 1077.5996,197.705 1077.5996,205.378 C1077.5996,213.051 1071.3576,219.294 1063.6846,219.294" id="Fill-93" fill="#FFFFFF"></path>
                            <path d="M1063.6846,201.798 C1062.0636,201.798 1060.7456,203.116 1060.7456,204.737 C1060.7456,206.359 1062.0636,207.677 1063.6846,207.677 C1065.3046,207.677 1066.6226,206.359 1066.6226,204.737 C1066.6226,203.116 1065.3046,201.798 1063.6846,201.798 M1063.6846,209.177 C1061.2366,209.177 1059.2456,207.186 1059.2456,204.737 C1059.2456,202.289 1061.2366,200.298 1063.6846,200.298 C1066.1316,200.298 1068.1226,202.289 1068.1226,204.737 C1068.1226,207.186 1066.1316,209.177 1063.6846,209.177" id="Fill-95" fill="#FFFFFF"></path>
                            <path d="M1069.2373,217.7472 C1068.8233,217.7472 1068.4873,217.4112 1068.4873,216.9972 C1068.4873,214.3492 1066.3333,212.1932 1063.6843,212.1932 C1061.0363,212.1932 1058.8813,214.3492 1058.8813,216.9972 C1058.8813,217.4112 1058.5453,217.7472 1058.1313,217.7472 C1057.7163,217.7472 1057.3813,217.4112 1057.3813,216.9972 C1057.3813,213.5212 1060.2093,210.6932 1063.6843,210.6932 C1067.1603,210.6932 1069.9873,213.5212 1069.9873,216.9972 C1069.9873,217.4112 1069.6513,217.7472 1069.2373,217.7472" id="Fill-97" fill="#FFFFFF"></path>
                            <path d="M1063.6846,1.5001 C1056.8376,1.5001 1051.2686,7.0691 1051.2686,13.9151 C1051.2686,20.7621 1056.8376,26.3311 1063.6846,26.3311 C1070.5306,26.3311 1076.0996,20.7621 1076.0996,13.9151 C1076.0996,7.0691 1070.5306,1.5001 1063.6846,1.5001 M1063.6846,27.8311 C1056.0116,27.8311 1049.7686,21.5881 1049.7686,13.9151 C1049.7686,6.2421 1056.0116,0.0001 1063.6846,0.0001 C1071.3576,0.0001 1077.5996,6.2421 1077.5996,13.9151 C1077.5996,21.5881 1071.3576,27.8311 1063.6846,27.8311" id="Fill-99" fill="#FFFFFF"></path>
                            <path d="M1063.6846,10.3351 C1062.0636,10.3351 1060.7456,11.6531 1060.7456,13.2741 C1060.7456,14.8961 1062.0636,16.2141 1063.6846,16.2141 C1065.3046,16.2141 1066.6226,14.8961 1066.6226,13.2741 C1066.6226,11.6531 1065.3046,10.3351 1063.6846,10.3351 M1063.6846,17.7141 C1061.2366,17.7141 1059.2456,15.7231 1059.2456,13.2741 C1059.2456,10.8261 1061.2366,8.8351 1063.6846,8.8351 C1066.1316,8.8351 1068.1226,10.8261 1068.1226,13.2741 C1068.1226,15.7231 1066.1316,17.7141 1063.6846,17.7141" id="Fill-101" fill="#FFFFFF"></path>
                            <path d="M1069.2373,26.2843 C1068.8233,26.2843 1068.4873,25.9483 1068.4873,25.5343 C1068.4873,22.8863 1066.3333,20.7303 1063.6843,20.7303 C1061.0363,20.7303 1058.8813,22.8863 1058.8813,25.5343 C1058.8813,25.9483 1058.5453,26.2843 1058.1313,26.2843 C1057.7163,26.2843 1057.3813,25.9483 1057.3813,25.5343 C1057.3813,22.0583 1060.2093,19.2303 1063.6843,19.2303 C1067.1603,19.2303 1069.9873,22.0583 1069.9873,25.5343 C1069.9873,25.9483 1069.6513,26.2843 1069.2373,26.2843" id="Fill-103" fill="#FFFFFF"></path>
                            <path d="M179.0547,155.6017 C171.6657,155.6017 165.6557,161.6137 165.6557,169.0017 C165.6557,176.3907 171.6657,182.4017 179.0547,182.4017 C186.4437,182.4017 192.4547,176.3907 192.4547,169.0017 C192.4547,161.6137 186.4437,155.6017 179.0547,155.6017 M179.0547,183.9017 C170.8387,183.9017 164.1557,177.2177 164.1557,169.0017 C164.1557,160.7867 170.8387,154.1017 179.0547,154.1017 C187.2707,154.1017 193.9547,160.7867 193.9547,169.0017 C193.9547,177.2177 187.2707,183.9017 179.0547,183.9017" id="Fill-105" fill="#FFFFFF"></path>
                            <path d="M179.0547,165.0978 C177.2827,165.0978 175.8397,166.5398 175.8397,168.3138 C175.8397,170.0858 177.2827,171.5288 179.0547,171.5288 C180.8277,171.5288 182.2707,170.0858 182.2707,168.3138 C182.2707,166.5398 180.8277,165.0978 179.0547,165.0978 M179.0547,173.0288 C176.4547,173.0288 174.3397,170.9128 174.3397,168.3138 C174.3397,165.7128 176.4547,163.5978 179.0547,163.5978 C181.6557,163.5978 183.7707,165.7128 183.7707,168.3138 C183.7707,170.9128 181.6557,173.0288 179.0547,173.0288" id="Fill-107" fill="#FFFFFF"></path>
                            <path d="M185.0234,182.2394 C184.6094,182.2394 184.2734,181.9034 184.2734,181.4894 C184.2734,178.6114 181.9324,176.2704 179.0544,176.2704 C176.1774,176.2704 173.8364,178.6114 173.8364,181.4894 C173.8364,181.9034 173.5014,182.2394 173.0864,182.2394 C172.6724,182.2394 172.3364,181.9034 172.3364,181.4894 C172.3364,177.7844 175.3504,174.7704 179.0544,174.7704 C182.7594,174.7704 185.7734,177.7844 185.7734,181.4894 C185.7734,181.9034 185.4374,182.2394 185.0234,182.2394" id="Fill-109" fill="#FFFFFF"></path>
                            <path d="M980.7344,623.4435 C973.8884,623.4435 968.3194,629.0125 968.3194,635.8595 C968.3194,642.7055 973.8884,648.2745 980.7344,648.2745 C987.5814,648.2745 993.1504,642.7055 993.1504,635.8595 C993.1504,629.0125 987.5814,623.4435 980.7344,623.4435 M980.7344,649.7745 C973.0614,649.7745 966.8194,643.5325 966.8194,635.8595 C966.8194,628.1865 973.0614,621.9435 980.7344,621.9435 C988.4074,621.9435 994.6504,628.1865 994.6504,635.8595 C994.6504,643.5325 988.4074,649.7745 980.7344,649.7745" id="Fill-111" fill="#FFFFFF"></path>
                            <path d="M980.7344,632.2794 C979.1134,632.2794 977.7954,633.5974 977.7954,635.2184 C977.7954,636.8394 979.1134,638.1574 980.7344,638.1574 C982.3554,638.1574 983.6734,636.8394 983.6734,635.2184 C983.6734,633.5974 982.3554,632.2794 980.7344,632.2794 M980.7344,639.6574 C978.2864,639.6574 976.2954,637.6664 976.2954,635.2184 C976.2954,632.7704 978.2864,630.7794 980.7344,630.7794 C983.1824,630.7794 985.1734,632.7704 985.1734,635.2184 C985.1734,637.6664 983.1824,639.6574 980.7344,639.6574" id="Fill-113" fill="#FFFFFF"></path>
                            <path d="M986.2871,648.2277 C985.8731,648.2277 985.5371,647.8917 985.5371,647.4777 C985.5371,644.8297 983.3831,642.6747 980.7341,642.6747 C978.0861,642.6747 975.9321,644.8297 975.9321,647.4777 C975.9321,647.8917 975.5961,648.2277 975.1821,648.2277 C974.7671,648.2277 974.4321,647.8917 974.4321,647.4777 C974.4321,644.0017 977.2591,641.1747 980.7341,641.1747 C984.2101,641.1747 987.0371,644.0017 987.0371,647.4777 C987.0371,647.8917 986.7011,648.2277 986.2871,648.2277" id="Fill-115" fill="#FFFFFF"></path>
                            <path d="M1146.6338,432.2882 C1139.7878,432.2882 1134.2188,437.8572 1134.2188,444.7032 C1134.2188,451.5502 1139.7878,457.1192 1146.6338,457.1192 C1153.4808,457.1192 1159.0498,451.5502 1159.0498,444.7032 C1159.0498,437.8572 1153.4808,432.2882 1146.6338,432.2882 M1146.6338,458.6192 C1138.9608,458.6192 1132.7188,452.3762 1132.7188,444.7032 C1132.7188,437.0302 1138.9608,430.7882 1146.6338,430.7882 C1154.3068,430.7882 1160.5498,437.0302 1160.5498,444.7032 C1160.5498,452.3762 1154.3068,458.6192 1146.6338,458.6192" id="Fill-117" fill="#FFFFFF"></path>
                            <path d="M1146.6338,441.1242 C1145.0128,441.1242 1143.6948,442.4422 1143.6948,444.0622 C1143.6948,445.6842 1145.0128,447.0022 1146.6338,447.0022 C1148.2548,447.0022 1149.5728,445.6842 1149.5728,444.0622 C1149.5728,442.4422 1148.2548,441.1242 1146.6338,441.1242 M1146.6338,448.5022 C1144.1858,448.5022 1142.1948,446.5112 1142.1948,444.0622 C1142.1948,441.6152 1144.1858,439.6242 1146.6338,439.6242 C1149.0818,439.6242 1151.0728,441.6152 1151.0728,444.0622 C1151.0728,446.5112 1149.0818,448.5022 1146.6338,448.5022" id="Fill-119" fill="#FFFFFF"></path>
                            <path d="M1152.1875,457.0724 C1151.7735,457.0724 1151.4375,456.7364 1151.4375,456.3224 C1151.4375,453.6744 1149.2825,451.5194 1146.6335,451.5194 C1143.9855,451.5194 1141.8315,453.6744 1141.8315,456.3224 C1141.8315,456.7364 1141.4955,457.0724 1141.0815,457.0724 C1140.6665,457.0724 1140.3315,456.7364 1140.3315,456.3224 C1140.3315,452.8464 1143.1585,450.0194 1146.6335,450.0194 C1150.1095,450.0194 1152.9375,452.8464 1152.9375,456.3224 C1152.9375,456.7364 1152.6015,457.0724 1152.1875,457.0724" id="Fill-121" fill="#FFFFFF"></path>
                            <path d="M1229.584,588.6828 C1229.17,588.6828 1228.834,588.3468 1228.834,587.9328 L1228.834,492.0788 C1228.834,491.6648 1229.17,491.3288 1229.584,491.3288 C1229.998,491.3288 1230.334,491.6648 1230.334,492.0788 L1230.334,587.9328 C1230.334,588.3468 1229.998,588.6828 1229.584,588.6828" id="Fill-123" fill="#FFFFFF"></path>
                            <path d="M1146.6348,636.3019 C1146.3748,636.3019 1146.1218,636.1669 1145.9838,635.9249 C1145.7778,635.5669 1145.9018,635.1079 1146.2608,634.9019 L1229.2108,587.2819 C1229.5698,587.0739 1230.0288,587.1989 1230.2348,587.5599 C1230.4408,587.9179 1230.3168,588.3769 1229.9568,588.5829 L1147.0068,636.2019 C1146.8898,636.2699 1146.7608,636.3019 1146.6348,636.3019" id="Fill-125" fill="#FFFFFF"></path>
                            <g id="Group-129" transform="translate(1393.000000, 440.923000)">
                                <mask id="mask-2" fill="white">
                                    <use xlink:href="#path-1"></use>
                                </mask>
                                <g id="Clip-128"></g>
                                <path d="M0.625,143.3252 L0.625,48.7352 C0.625,48.4682 0.768,48.2202 1,48.0862 L48.5355055,19.2877431 C48.8965055,19.0797431 49.3535055,19.2037431 49.5605055,19.5617431 C49.7675055,19.9207431 49.6445055,20.3797431 49.2855055,20.5867431 L2.125,49.1682 L2.125,143.3252 C2.125,143.7392 1.789,144.0752 1.375,144.0752 C0.961,144.0752 0.625,143.7392 0.625,143.3252 Z" id="Fill-127" fill="#FFFFFF" mask="url(#mask-2)"></path>
                            </g>
                            <g id="Group-135" transform="translate(1393.000000, 13.923000)">
                                <mask id="mask-4" fill="white">
                                    <use xlink:href="#path-3"></use>
                                </mask>
                                <g id="Clip-134"></g>
                                <path d="M48.7536227,29.8275014 L1.0005,2.3286 C0.6415,2.1216 0.5185,1.6626 0.7255,1.3046 C0.9325,0.9476 1.3895,0.8226 1.7505,1.0306 L49.5036227,28.5295014 C49.8616227,28.7365014 49.9846227,29.1955014 49.7776227,29.5535014 C49.6396227,29.7935014 49.3876227,29.9285014 49.1276227,29.9285014 C48.9611892,29.9285014 48.8716227,29.8965014 48.7536227,29.8275014 Z" id="Fill-133" fill="#FFFFFF" mask="url(#mask-4)"></path>
                            </g>
                            <g id="Group-138" transform="translate(1393.000000, 155.923000)">
                                <mask id="mask-6" fill="white">
                                    <use xlink:href="#path-5"></use>
                                </mask>
                                <g id="Clip-137"></g>
                                <path d="M0.725,48.9287 C0.519,48.5707 0.643,48.1117 1.002,47.9057 L48.7938637,20.7560911 C49.1538637,20.5490911 49.6118637,20.6740911 49.8178637,21.0340911 C50.0238637,21.3920911 49.5408637,22.0570911 49.5408637,22.0570911 L1.748,49.2057 C1.631,49.2737 1.502,49.3057 1.376,49.3057 C1.116,49.3057 0.863,49.1707 0.725,48.9287 Z" id="Fill-136" fill="#FFFFFF" mask="url(#mask-6)"></path>
                            </g>
                            <path d="M357.3604,578.0617 C356.9464,578.0617 356.6104,577.7257 356.6104,577.3117 L356.6104,474.2907 C356.6104,474.0237 356.7534,473.7757 356.9854,473.6417 L446.1374,422.1307 C446.3704,421.9967 446.6554,421.9967 446.8874,422.1307 L523.2834,466.2707 C523.6414,466.4777 523.7644,466.9367 523.5574,467.2947 C523.3504,467.6527 522.8934,467.7777 522.5334,467.5697 L446.5124,423.6467 L358.1104,474.7237 L358.1104,577.3117 C358.1104,577.7257 357.7744,578.0617 357.3604,578.0617" id="Fill-139" fill="#FFFFFF"></path>
                            <path d="M446.5127,732.923 C446.0987,732.923 445.7627,732.587 445.7627,732.173 L445.7627,629.152 C445.7627,628.885 445.9057,628.637 446.1377,628.503 L535.2907,576.992 C535.6517,576.784 536.1097,576.909 536.3157,577.267 C536.5227,577.625 536.3997,578.084 536.0407,578.291 L447.2627,629.585 L447.2627,732.173 C447.2627,732.587 446.9267,732.923 446.5127,732.923" id="Fill-141" fill="#FFFFFF"></path>
                            <path d="M446.5127,115.9435 C446.0987,115.9435 445.7627,115.6075 445.7627,115.1935 L445.7627,12.1725 C445.7627,11.7585 446.0987,11.4225 446.5127,11.4225 C446.9267,11.4225 447.2627,11.7585 447.2627,12.1725 L447.2627,115.1935 C447.2627,115.6075 446.9267,115.9435 446.5127,115.9435" id="Fill-143" fill="#FFFFFF"></path>
                            <path d="M535.665,167.1242 C535.539,167.1242 535.41,167.0922 535.293,167.0242 L446.14,115.8442 C445.78,115.6382 445.656,115.1792 445.862,114.8202 C446.069,114.4612 446.528,114.3372 446.886,114.5432 L536.039,165.7242 C536.398,165.9302 536.522,166.3892 536.316,166.7472 C536.178,166.9892 535.925,167.1242 535.665,167.1242" id="Fill-145" fill="#FFFFFF"></path>
                            <path d="M89.9023,115.9435 C89.4883,115.9435 89.1523,115.6075 89.1523,115.1935 L89.1523,12.1725 C89.1523,11.7585 89.4883,11.4225 89.9023,11.4225 C90.3163,11.4225 90.6523,11.7585 90.6523,12.1725 L90.6523,115.1935 C90.6523,115.6075 90.3163,115.9435 89.9023,115.9435" id="Fill-147" fill="#FFFFFF"></path>
                            <path d="M268.208,115.9435 C267.794,115.9435 267.458,115.6075 267.458,115.1935 L267.458,12.1725 C267.458,11.7585 267.794,11.4225 268.208,11.4225 C268.622,11.4225 268.958,11.7585 268.958,12.1725 L268.958,115.1935 C268.958,115.6075 268.622,115.9435 268.208,115.9435" id="Fill-149" fill="#FFFFFF"></path>
                            <path d="M268.209,320.9357 C267.949,320.9357 267.696,320.8007 267.558,320.5587 C267.352,320.2007 267.476,319.7417 267.835,319.5357 L356.61,268.5717 L356.61,180.5247 C356.61,180.1107 356.946,179.7747 357.36,179.7747 C357.774,179.7747 358.11,180.1107 358.11,180.5247 L358.11,269.0057 C358.11,269.2747 357.967,269.5227 357.733,269.6567 L268.581,320.8357 C268.464,320.9037 268.335,320.9357 268.209,320.9357" id="Fill-151" fill="#FFFFFF"></path>
                            <path d="M268.209,320.9357 C267.949,320.9357 267.697,320.8007 267.559,320.5607 C267.352,320.2027 267.475,319.7437 267.833,319.5367 L356.985,268.0267 C357.218,267.8917 357.503,267.8917 357.735,268.0267 L433.282,311.6757 C433.641,311.8827 433.764,312.3417 433.557,312.7007 C433.35,313.0577 432.893,313.1837 432.532,312.9747 L357.36,269.5417 L268.583,320.8347 C268.465,320.9037 268.336,320.9357 268.209,320.9357" id="Fill-153" fill="#FFFFFF"></path>
                            <path d="M1312.5332,158.7169 C1312.1192,158.7169 1311.7832,158.3809 1311.7832,157.9669 L1311.7832,75.2789 C1311.7832,74.8649 1312.1192,74.5289 1312.5332,74.5289 C1312.9472,74.5289 1313.2832,74.8649 1313.2832,75.2789 L1313.2832,157.9669 C1313.2832,158.3809 1312.9472,158.7169 1312.5332,158.7169" id="Fill-155" fill="#FFFFFF"></path>
                            <path d="M1229.585,206.3371 C1229.325,206.3371 1229.072,206.2021 1228.934,205.9601 C1228.728,205.6021 1228.852,205.1431 1229.211,204.9371 L1312.16,157.3161 C1312.52,157.1091 1312.978,157.2331 1313.184,157.5941 C1313.39,157.9521 1313.266,158.4111 1312.906,158.6171 L1229.957,206.2371 C1229.84,206.3051 1229.711,206.3371 1229.585,206.3371" id="Fill-157" fill="#FFFFFF"></path>
                            <path d="M1146.6348,349.6007 C1146.3748,349.6007 1146.1228,349.4657 1145.9848,349.2257 C1145.7778,348.8677 1145.9008,348.4087 1146.2588,348.2017 L1217.8188,306.8557 C1218.1768,306.6477 1218.6358,306.7727 1218.8428,307.1297 C1219.0498,307.4887 1218.9268,307.9477 1218.5688,308.1547 L1147.0088,349.4997 C1146.8908,349.5687 1146.7618,349.6007 1146.6348,349.6007" id="Fill-159" fill="#FFFFFF"></path>
                            <path d="M1312.5332,445.4533 C1312.1192,445.4533 1311.7832,445.1173 1311.7832,444.7033 L1311.7832,348.8503 C1311.7832,348.5833 1311.9262,348.3353 1312.1582,348.2013 L1383.7162,306.8563 C1384.0762,306.6473 1384.5342,306.7733 1384.7402,307.1313 C1384.9472,307.4893 1384.8242,307.9483 1384.4662,308.1553 L1313.2832,349.2833 L1313.2832,444.7033 C1313.2832,445.1173 1312.9472,445.4533 1312.5332,445.4533" id="Fill-161" fill="#FFFFFF"></path>
                            <path d="M1312.5332,732.923 C1312.1192,732.923 1311.7832,732.587 1311.7832,732.173 L1311.7832,649.332 C1311.7832,648.918 1312.1192,648.582 1312.5332,648.582 C1312.9472,648.582 1313.2832,648.918 1313.2832,649.332 L1313.2832,732.173 C1313.2832,732.587 1312.9472,732.923 1312.5332,732.923" id="Fill-163" fill="#FFFFFF"></path>
                            <path d="M1146.6338,732.923 C1146.2198,732.923 1145.8838,732.587 1145.8838,732.173 L1145.8838,636.32 C1145.8838,636.053 1146.0268,635.805 1146.2588,635.671 L1229.2088,587.744 C1229.5708,587.536 1230.0268,587.661 1230.2338,588.019 C1230.4408,588.377 1230.3178,588.836 1229.9588,589.043 L1147.3838,636.753 L1147.3838,732.173 C1147.3838,732.587 1147.0478,732.923 1146.6338,732.923" id="Fill-165" fill="#FFFFFF"></path>
                            <path d="M1236.8984,588.2404 C1236.8984,592.2794 1233.6234,595.5534 1229.5844,595.5534 C1225.5444,595.5534 1222.2694,592.2794 1222.2694,588.2404 C1222.2694,584.2004 1225.5444,580.9264 1229.5844,580.9264 C1233.6234,580.9264 1236.8984,584.2004 1236.8984,588.2404" id="Fill-167" fill="#FFFFFF"></path>
                            <path d="M1319.8477,348.8507 C1319.8477,352.8897 1316.5737,356.1647 1312.5337,356.1647 C1308.4937,356.1647 1305.2197,352.8897 1305.2197,348.8507 C1305.2197,344.8107 1308.4937,341.5367 1312.5337,341.5367 C1316.5737,341.5367 1319.8477,344.8107 1319.8477,348.8507" id="Fill-169" fill="#FFFFFF"></path>
                            <path d="M1401.6895,489.673 C1401.6895,493.713 1398.4155,496.987 1394.3755,496.987 C1390.3355,496.987 1387.0615,493.713 1387.0615,489.673 C1387.0615,485.634 1390.3355,482.359 1394.3755,482.359 C1398.4155,482.359 1401.6895,485.634 1401.6895,489.673" id="Fill-171" fill="#FFFFFF"></path>
                            <path d="M1401.6895,584.2482 C1401.6895,588.2872 1398.4155,591.5612 1394.3755,591.5612 C1390.3355,591.5612 1387.0615,588.2872 1387.0615,584.2482 C1387.0615,580.2082 1390.3355,576.9342 1394.3755,576.9342 C1398.4155,576.9342 1401.6895,580.2082 1401.6895,584.2482" id="Fill-173" fill="#FFFFFF"></path>
                            <path d="M1236.8984,205.5871 C1236.8984,209.6261 1233.6234,212.9001 1229.5844,212.9001 C1225.5444,212.9001 1222.2694,209.6261 1222.2694,205.5871 C1222.2694,201.5471 1225.5444,198.2731 1229.5844,198.2731 C1233.6234,198.2731 1236.8984,201.5471 1236.8984,205.5871" id="Fill-175" fill="#FFFFFF"></path>
                            <path d="M1153.9482,62.1144 C1153.9482,66.1534 1150.6742,69.4284 1146.6342,69.4284 C1142.5942,69.4284 1139.3202,66.1534 1139.3202,62.1144 C1139.3202,58.0744 1142.5942,54.8004 1146.6342,54.8004 C1150.6742,54.8004 1153.9482,58.0744 1153.9482,62.1144" id="Fill-177" fill="#FFFFFF"></path>
                            <path d="M1319.8477,157.4513 C1319.8477,161.4913 1316.5737,164.7653 1312.5337,164.7653 C1308.4937,164.7653 1305.2197,161.4913 1305.2197,157.4513 C1305.2197,153.4123 1308.4937,150.1383 1312.5337,150.1383 C1316.5737,150.1383 1319.8477,153.4123 1319.8477,157.4513" id="Fill-179" fill="#FFFFFF"></path>
                            <path d="M1402.5098,15.6027 C1402.5098,19.6427 1399.2358,22.9167 1395.1968,22.9167 C1391.1558,22.9167 1387.8818,19.6427 1387.8818,15.6027 C1387.8818,11.5637 1391.1558,8.2897 1395.1968,8.2897 C1399.2358,8.2897 1402.5098,11.5637 1402.5098,15.6027" id="Fill-181" fill="#FFFFFF"></path>
                            <path d="M1319.8477,444.7033 C1319.8477,448.7433 1316.5737,452.0173 1312.5337,452.0173 C1308.4937,452.0173 1305.2197,448.7433 1305.2197,444.7033 C1305.2197,440.6643 1308.4937,437.3903 1312.5337,437.3903 C1316.5737,437.3903 1319.8477,440.6643 1319.8477,444.7033" id="Fill-183" fill="#FFFFFF"></path>
                            <path d="M1229.584,288.5089 C1222.737,288.5089 1217.168,294.0779 1217.168,300.9239 C1217.168,307.7709 1222.737,313.3399 1229.584,313.3399 C1236.43,313.3399 1241.999,307.7709 1241.999,300.9239 C1241.999,294.0779 1236.43,288.5089 1229.584,288.5089 M1229.584,314.8399 C1221.911,314.8399 1215.668,308.5969 1215.668,300.9239 C1215.668,293.2509 1221.911,287.0089 1229.584,287.0089 C1237.257,287.0089 1243.499,293.2509 1243.499,300.9239 C1243.499,308.5969 1237.257,314.8399 1229.584,314.8399" id="Fill-185" fill="#FFFFFF"></path>
                            <path d="M1229.584,297.3439 C1227.963,297.3439 1226.645,298.6619 1226.645,300.2829 C1226.645,301.9049 1227.963,303.2229 1229.584,303.2229 C1231.205,303.2229 1232.523,301.9049 1232.523,300.2829 C1232.523,298.6619 1231.205,297.3439 1229.584,297.3439 M1229.584,304.7229 C1227.136,304.7229 1225.145,302.7319 1225.145,300.2829 C1225.145,297.8349 1227.136,295.8439 1229.584,295.8439 C1232.032,295.8439 1234.023,297.8349 1234.023,300.2829 C1234.023,302.7319 1232.032,304.7229 1229.584,304.7229" id="Fill-187" fill="#FFFFFF"></path>
                            <path d="M1235.1367,313.2931 C1234.7227,313.2931 1234.3867,312.9571 1234.3867,312.5431 C1234.3867,309.8951 1232.2327,307.7391 1229.5837,307.7391 C1226.9357,307.7391 1224.7807,309.8951 1224.7807,312.5431 C1224.7807,312.9571 1224.4447,313.2931 1224.0307,313.2931 C1223.6157,313.2931 1223.2807,312.9571 1223.2807,312.5431 C1223.2807,309.0671 1226.1087,306.2391 1229.5837,306.2391 C1233.0597,306.2391 1235.8867,309.0671 1235.8867,312.5431 C1235.8867,312.9571 1235.5507,313.2931 1235.1367,313.2931" id="Fill-189" fill="#FFFFFF"></path>
                            <path d="M1395.4941,288.5089 C1388.6481,288.5089 1383.0791,294.0779 1383.0791,300.9239 C1383.0791,307.7709 1388.6481,313.3399 1395.4941,313.3399 C1402.3411,313.3399 1407.9101,307.7709 1407.9101,300.9239 C1407.9101,294.0779 1402.3411,288.5089 1395.4941,288.5089 M1395.4941,314.8399 C1387.8211,314.8399 1381.5791,308.5969 1381.5791,300.9239 C1381.5791,293.2509 1387.8211,287.0089 1395.4941,287.0089 C1403.1671,287.0089 1409.4101,293.2509 1409.4101,300.9239 C1409.4101,308.5969 1403.1671,314.8399 1395.4941,314.8399" id="Fill-191" fill="#FFFFFF"></path>
                            <path d="M1395.4941,297.3439 C1393.8731,297.3439 1392.5551,298.6619 1392.5551,300.2829 C1392.5551,301.9049 1393.8731,303.2229 1395.4941,303.2229 C1397.1151,303.2229 1398.4331,301.9049 1398.4331,300.2829 C1398.4331,298.6619 1397.1151,297.3439 1395.4941,297.3439 M1395.4941,304.7229 C1393.0461,304.7229 1391.0551,302.7319 1391.0551,300.2829 C1391.0551,297.8349 1393.0461,295.8439 1395.4941,295.8439 C1397.9421,295.8439 1399.9331,297.8349 1399.9331,300.2829 C1399.9331,302.7319 1397.9421,304.7229 1395.4941,304.7229" id="Fill-193" fill="#FFFFFF"></path>
                            <path d="M1401.0469,313.2931 C1400.6329,313.2931 1400.2969,312.9571 1400.2969,312.5431 C1400.2969,309.8951 1398.1429,307.7391 1395.4939,307.7391 C1392.8459,307.7391 1390.6919,309.8951 1390.6919,312.5431 C1390.6919,312.9571 1390.3559,313.2931 1389.9419,313.2931 C1389.5269,313.2931 1389.1919,312.9571 1389.1919,312.5431 C1389.1919,309.0671 1392.0189,306.2391 1395.4939,306.2391 C1398.9699,306.2391 1401.7969,309.0671 1401.7969,312.5431 C1401.7969,312.9571 1401.4609,313.2931 1401.0469,313.2931" id="Fill-195" fill="#FFFFFF"></path>
                            <path d="M1312.5332,49.6984 C1305.6872,49.6984 1300.1182,55.2674 1300.1182,62.1144 C1300.1182,68.9604 1305.6872,74.5294 1312.5332,74.5294 C1319.3802,74.5294 1324.9492,68.9604 1324.9492,62.1144 C1324.9492,55.2674 1319.3802,49.6984 1312.5332,49.6984 M1312.5332,76.0294 C1304.8602,76.0294 1298.6182,69.7874 1298.6182,62.1144 C1298.6182,54.4414 1304.8602,48.1984 1312.5332,48.1984 C1320.2062,48.1984 1326.4492,54.4414 1326.4492,62.1144 C1326.4492,69.7874 1320.2062,76.0294 1312.5332,76.0294" id="Fill-197" fill="#FFFFFF"></path>
                            <path d="M1312.5332,58.5343 C1310.9132,58.5343 1309.5952,59.8523 1309.5952,61.4733 C1309.5952,63.0953 1310.9132,64.4133 1312.5332,64.4133 C1314.1542,64.4133 1315.4722,63.0953 1315.4722,61.4733 C1315.4722,59.8523 1314.1542,58.5343 1312.5332,58.5343 M1312.5332,65.9133 C1310.0862,65.9133 1308.0952,63.9223 1308.0952,61.4733 C1308.0952,59.0253 1310.0862,57.0343 1312.5332,57.0343 C1314.9812,57.0343 1316.9722,59.0253 1316.9722,61.4733 C1316.9722,63.9223 1314.9812,65.9133 1312.5332,65.9133" id="Fill-199" fill="#FFFFFF"></path>
                            <path d="M1318.0869,74.4826 C1317.6729,74.4826 1317.3369,74.1466 1317.3369,73.7326 C1317.3369,71.0846 1315.1819,68.9296 1312.5329,68.9296 C1309.8849,68.9296 1307.7309,71.0846 1307.7309,73.7326 C1307.7309,74.1466 1307.3949,74.4826 1306.9809,74.4826 C1306.5659,74.4826 1306.2309,74.1466 1306.2309,73.7326 C1306.2309,70.2566 1309.0579,67.4296 1312.5329,67.4296 C1316.0089,67.4296 1318.8369,70.2566 1318.8369,73.7326 C1318.8369,74.1466 1318.5009,74.4826 1318.0869,74.4826" id="Fill-201" fill="#FFFFFF"></path>
                            <path d="M349.499,268.6759 C349.499,273.0179 353.019,276.5369 357.36,276.5369 C361.702,276.5369 365.222,273.0179 365.222,268.6759 C365.222,264.3339 361.702,260.8149 357.36,260.8149 C353.019,260.8149 349.499,264.3339 349.499,268.6759" id="Fill-203" fill="#FFFFFF"></path>
                            <path d="M82.041,423.2072 C82.041,427.5492 85.561,431.0682 89.902,431.0682 C94.244,431.0682 97.764,427.5492 97.764,423.2072 C97.764,418.8652 94.244,415.3462 89.902,415.3462 C85.561,415.3462 82.041,418.8652 82.041,423.2072" id="Fill-205" fill="#FFFFFF"></path>
                            <path d="M527.8047,166.3742 C527.8047,170.7162 531.3247,174.2352 535.6657,174.2352 C540.0067,174.2352 543.5267,170.7162 543.5267,166.3742 C543.5267,162.0322 540.0067,158.5132 535.6657,158.5132 C531.3247,158.5132 527.8047,162.0322 527.8047,166.3742" id="Fill-207" fill="#FFFFFF"></path>
                            <path d="M438.6523,628.9875 C438.6523,633.3295 442.1723,636.8485 446.5123,636.8485 C450.8543,636.8485 454.3743,633.3295 454.3743,628.9875 C454.3743,624.6455 450.8543,621.1265 446.5123,621.1265 C442.1723,621.1265 438.6523,624.6455 438.6523,628.9875" id="Fill-209" fill="#FFFFFF"></path>
                            <path d="M438.6523,423.2072 C438.6523,427.5492 442.1723,431.0682 446.5123,431.0682 C450.8543,431.0682 454.3743,427.5492 454.3743,423.2072 C454.3743,418.8652 450.8543,415.3462 446.5123,415.3462 C442.1723,415.3462 438.6523,418.8652 438.6523,423.2072" id="Fill-211" fill="#FFFFFF"></path>
                            <path d="M349.499,577.3117 C349.499,581.6537 353.019,585.1727 357.36,585.1727 C361.702,585.1727 365.222,581.6537 365.222,577.3117 C365.222,572.9697 361.702,569.4507 357.36,569.4507 C353.019,569.4507 349.499,572.9697 349.499,577.3117" id="Fill-213" fill="#FFFFFF"></path>
                            <path d="M260.3467,628.9875 C260.3467,633.3295 263.8667,636.8485 268.2077,636.8485 C272.5497,636.8485 276.0697,633.3295 276.0697,628.9875 C276.0697,624.6455 272.5497,621.1265 268.2077,621.1265 C263.8667,621.1265 260.3467,624.6455 260.3467,628.9875" id="Fill-215" fill="#FFFFFF"></path>
                            <path d="M349.499,474.4562 C349.499,478.7972 353.019,482.3162 357.36,482.3162 C361.702,482.3162 365.222,478.7972 365.222,474.4562 C365.222,470.1142 361.702,466.5952 357.36,466.5952 C353.019,466.5952 349.499,470.1142 349.499,474.4562" id="Fill-217" fill="#FFFFFF"></path>
                            <path d="M972.873,444.7033 C972.873,449.0453 976.393,452.5643 980.734,452.5643 C985.076,452.5643 988.596,449.0453 988.596,444.7033 C988.596,440.3623 985.076,436.8433 980.734,436.8433 C976.393,436.8433 972.873,440.3623 972.873,444.7033" id="Fill-219" fill="#FFFFFF"></path>
                            <path d="M972.873,62.8976 C972.873,67.2396 976.393,70.7586 980.734,70.7586 C985.076,70.7586 988.596,67.2396 988.596,62.8976 C988.596,58.5556 985.076,55.0366 980.734,55.0366 C976.393,55.0366 972.873,58.5556 972.873,62.8976" id="Fill-221" fill="#FFFFFF"></path>
                            <path d="M260.3467,320.1857 C260.3467,324.5277 263.8667,328.0467 268.2077,328.0467 C272.5497,328.0467 276.0697,324.5277 276.0697,320.1857 C276.0697,315.8447 272.5497,312.3257 268.2077,312.3257 C263.8667,312.3257 260.3467,315.8447 260.3467,320.1857" id="Fill-223" fill="#FFFFFF"></path>
                            <path d="M82.041,323.2033 C82.041,327.5443 85.561,331.0633 89.902,331.0633 C94.244,331.0633 97.764,327.5443 97.764,323.2033 C97.764,318.8613 94.244,315.3423 89.902,315.3423 C85.561,315.3423 82.041,318.8613 82.041,323.2033" id="Fill-225" fill="#FFFFFF"></path>
                            <path d="M527.8047,577.4767 C527.8047,581.8187 531.3247,585.3377 535.6657,585.3377 C540.0067,585.3377 543.5267,581.8187 543.5267,577.4767 C543.5267,573.1347 540.0067,569.6157 535.6657,569.6157 C531.3247,569.6157 527.8047,573.1347 527.8047,577.4767" id="Fill-227" fill="#FFFFFF"></path>
                            <path d="M446.5127,306.7863 C439.1237,306.7863 433.1137,312.7973 433.1137,320.1853 C433.1137,327.5743 439.1237,333.5863 446.5127,333.5863 C453.9017,333.5863 459.9127,327.5743 459.9127,320.1853 C459.9127,312.7973 453.9017,306.7863 446.5127,306.7863 M446.5127,335.0863 C438.2967,335.0863 431.6137,328.4013 431.6137,320.1853 C431.6137,311.9703 438.2967,305.2863 446.5127,305.2863 C454.7287,305.2863 461.4127,311.9703 461.4127,320.1853 C461.4127,328.4013 454.7287,335.0863 446.5127,335.0863" id="Fill-229" fill="#FFFFFF"></path>
                            <path d="M446.5127,316.2824 C444.7407,316.2824 443.2977,317.7244 443.2977,319.4974 C443.2977,321.2704 444.7407,322.7134 446.5127,322.7134 C448.2857,322.7134 449.7287,321.2704 449.7287,319.4974 C449.7287,317.7244 448.2857,316.2824 446.5127,316.2824 M446.5127,324.2134 C443.9127,324.2134 441.7977,322.0974 441.7977,319.4974 C441.7977,316.8974 443.9127,314.7824 446.5127,314.7824 C449.1137,314.7824 451.2287,316.8974 451.2287,319.4974 C451.2287,322.0974 449.1137,324.2134 446.5127,324.2134" id="Fill-231" fill="#FFFFFF"></path>
                            <path d="M452.4814,333.424 C452.0674,333.424 451.7314,333.088 451.7314,332.674 C451.7314,329.796 449.3904,327.455 446.5124,327.455 C443.6354,327.455 441.2944,329.796 441.2944,332.674 C441.2944,333.088 440.9594,333.424 440.5444,333.424 C440.1304,333.424 439.7944,333.088 439.7944,332.674 C439.7944,328.969 442.8084,325.955 446.5124,325.955 C450.2174,325.955 453.2314,328.969 453.2314,332.674 C453.2314,333.088 452.8954,333.424 452.4814,333.424" id="Fill-233" fill="#FFFFFF"></path>
                            <path d="M438.6523,115.1935 C438.6523,119.5355 442.1723,123.0545 446.5123,123.0545 C450.8543,123.0545 454.3743,119.5355 454.3743,115.1935 C454.3743,110.8525 450.8543,107.3335 446.5123,107.3335 C442.1723,107.3335 438.6523,110.8525 438.6523,115.1935" id="Fill-235" fill="#FFFFFF"></path>
                            <path d="M433.8604,495.2238 L400.4234,514.5228 C398.2054,515.8038 396.8784,518.0968 396.8714,520.6578 C396.8644,523.2178 398.1804,525.5178 400.3924,526.8088 L452.0354,556.9518 C454.2314,558.2308 456.9644,558.2388 459.1664,556.9698 L492.6034,537.6708 C494.8214,536.3908 496.1494,534.0978 496.1554,531.5368 C496.1624,528.9758 494.8444,526.6758 492.6334,525.3858 L440.9924,495.2428 C439.8884,494.5978 438.6504,494.2758 437.4114,494.2758 C436.1844,494.2758 434.9574,494.5918 433.8604,495.2238 M450.8464,558.9878 L399.2044,528.8458 C396.2574,527.1258 394.5044,524.0628 394.5124,520.6518 C394.5204,517.2408 396.2904,514.1858 399.2444,512.4808 L432.6814,493.1818 C435.6154,491.4898 439.2554,491.4978 442.1804,493.2038 L493.8224,523.3488 C496.7684,525.0688 498.5224,528.1308 498.5134,531.5418 C498.5064,534.9528 496.7364,538.0078 493.7824,539.7128 L460.3444,559.0118 C458.8844,559.8548 457.2514,560.2758 455.6164,560.2758 C453.9664,560.2758 452.3164,559.8458 450.8464,558.9878" id="Fill-237" fill="#FFFFFF"></path>
                            <path d="M485.3838,532.8 C485.7888,532.8 486.1838,532.591 486.4038,532.215 C486.7318,531.654 486.5418,530.931 485.9798,530.603 L474.6058,523.963 C474.0448,523.636 473.3218,523.825 472.9928,524.388 C472.6648,524.949 472.8548,525.672 473.4168,526.001 L484.7908,532.64 C484.9778,532.749 485.1828,532.8 485.3838,532.8" id="Fill-239" fill="#FFFFFF"></path>
                            <path d="M468.8408,523.1437 C469.2458,523.1437 469.6408,522.9347 469.8608,522.5587 C470.1878,521.9967 469.9978,521.2747 469.4358,520.9457 L446.5188,507.5687 C445.9568,507.2407 445.2358,507.4297 444.9048,507.9937 C444.5778,508.5547 444.7678,509.2777 445.3298,509.6057 L468.2468,522.9827 C468.4338,523.0917 468.6388,523.1437 468.8408,523.1437" id="Fill-241" fill="#FFFFFF"></path>
                            <path d="M441.1348,506.9718 C441.5398,506.9718 441.9348,506.7628 442.1548,506.3868 C442.4828,505.8248 442.2918,505.1018 441.7298,504.7738 L434.3368,500.4578 C433.7758,500.1308 433.0538,500.3188 432.7238,500.8828 C432.3968,501.4448 432.5858,502.1668 433.1488,502.4948 L440.5408,506.8108 C440.7278,506.9198 440.9328,506.9718 441.1348,506.9718" id="Fill-243" fill="#FFFFFF"></path>
                            <path d="M478.959,537.1154 C479.364,537.1154 479.759,536.9054 479.979,536.5304 C480.307,535.9684 480.117,535.2464 479.555,534.9174 L458.601,522.6864 C458.04,522.3584 457.317,522.5484 456.988,523.1114 C456.66,523.6734 456.85,524.3954 457.413,524.7234 L478.366,536.9554 C478.553,537.0634 478.758,537.1154 478.959,537.1154" id="Fill-245" fill="#FFFFFF"></path>
                            <path d="M451.8828,521.3107 C452.2878,521.3107 452.6828,521.1017 452.9028,520.7257 C453.2308,520.1647 453.0408,519.4417 452.4778,519.1137 L433.9128,508.2767 C433.3518,507.9487 432.6288,508.1367 432.2998,508.7017 C431.9728,509.2627 432.1618,509.9857 432.7248,510.3137 L451.2898,521.1507 C451.4768,521.2597 451.6808,521.3107 451.8828,521.3107" id="Fill-247" fill="#FFFFFF"></path>
                            <path d="M471.7441,541.2335 C472.1501,541.2335 472.5451,541.0245 472.7641,540.6485 C473.0921,540.0865 472.9021,539.3635 472.3401,539.0355 L441.3481,520.9455 C440.7881,520.6175 440.0631,520.8065 439.7361,521.3705 C439.4081,521.9315 439.5981,522.6545 440.1601,522.9825 L471.1511,541.0725 C471.3381,541.1815 471.5431,541.2335 471.7441,541.2335" id="Fill-249" fill="#FFFFFF"></path>
                            <path d="M435.0488,519.8136 C435.4538,519.8136 435.8488,519.6036 436.0688,519.2286 C436.3958,518.6666 436.2058,517.9436 435.6438,517.6156 L422.9858,510.2266 C422.4228,509.8976 421.6998,510.0886 421.3718,510.6506 C421.0438,511.2126 421.2348,511.9356 421.7968,512.2636 L434.4548,519.6526 C434.6418,519.7616 434.8468,519.8136 435.0488,519.8136" id="Fill-251" fill="#FFFFFF"></path>
                            <path d="M465.0693,545.2882 C465.4743,545.2882 465.8693,545.0782 466.0893,544.7032 C466.4173,544.1412 466.2273,543.4192 465.6643,543.0902 L458.7163,539.0352 C458.1563,538.7082 457.4323,538.8972 457.1043,539.4602 C456.7763,540.0212 456.9653,540.7442 457.5283,541.0722 L464.4763,545.1282 C464.6633,545.2362 464.8683,545.2882 465.0693,545.2882" id="Fill-253" fill="#FFFFFF"></path>
                            <path d="M451.8828,537.591 C452.2878,537.591 452.6828,537.383 452.9028,537.006 C453.2308,536.445 453.0408,535.722 452.4778,535.394 L424.5858,519.113 C424.0258,518.784 423.3028,518.974 422.9738,519.537 C422.6458,520.1 422.8348,520.822 423.3988,521.151 L451.2898,537.431 C451.4768,537.54 451.6808,537.591 451.8828,537.591" id="Fill-255" fill="#FFFFFF"></path>
                            <path d="M458.0059,549.0255 C458.4109,549.0255 458.8059,548.8155 459.0259,548.4405 C459.3539,547.8785 459.1639,547.1555 458.6009,546.8275 L431.3579,530.9255 C430.7979,530.5965 430.0729,530.7885 429.7439,531.3495 C429.4169,531.9125 429.6069,532.6335 430.1689,532.9635 L457.4129,548.8645 C457.5999,548.9735 457.8039,549.0255 458.0059,549.0255" id="Fill-257" fill="#FFFFFF"></path>
                            <path d="M425.2354,529.8966 C425.6404,529.8966 426.0354,529.6876 426.2554,529.3116 C426.5824,528.7506 426.3924,528.0276 425.8304,527.6996 L406.9594,516.6836 C406.3964,516.3556 405.6744,516.5446 405.3454,517.1076 C405.0184,517.6696 405.2084,518.3916 405.7704,518.7206 L424.6414,529.7366 C424.8284,529.8446 425.0334,529.8966 425.2354,529.8966" id="Fill-259" fill="#FFFFFF"></path>
                            <path d="M1155.1025,229.7804 C1153.9495,229.7804 1152.7975,230.0804 1151.7715,230.6794 L1103.7215,258.7254 C1101.6645,259.9264 1100.4395,262.0654 1100.4455,264.4484 C1100.4515,266.8314 1101.6865,268.9654 1103.7495,270.1564 L1134.8615,288.1124 C1136.9105,289.2934 1139.4535,289.2854 1141.4965,288.0954 L1189.5455,260.0504 C1191.6035,258.8484 1192.8285,256.7094 1192.8225,254.3264 C1192.8165,251.9434 1191.5815,249.8104 1189.5165,248.6194 L1158.4065,230.6634 C1157.3855,230.0744 1156.2445,229.7804 1155.1025,229.7804 M1138.1645,291.1884 C1136.6435,291.1884 1135.1235,290.7974 1133.7645,290.0124 L1102.6535,272.0564 C1099.9055,270.4694 1098.2585,267.6284 1098.2505,264.4544 C1098.2435,261.2804 1099.8745,258.4294 1102.6165,256.8304 L1150.6655,228.7834 C1153.3875,227.1954 1156.7735,227.1874 1159.5025,228.7624 L1190.6145,246.7184 C1193.3625,248.3054 1195.0085,251.1464 1195.0165,254.3214 C1195.0245,257.4944 1193.3925,260.3444 1190.6515,261.9454 L1142.6015,289.9894 C1141.2345,290.7884 1139.6995,291.1884 1138.1645,291.1884" id="Fill-261" fill="#FFFFFF"></path>
                            <path d="M1110.4678,265.6242 C1110.0908,265.6242 1109.7238,265.4302 1109.5188,265.0802 C1109.2138,264.5582 1109.3908,263.8852 1109.9138,263.5792 L1120.4958,257.4022 C1121.0178,257.0982 1121.6908,257.2732 1121.9968,257.7972 C1122.3018,258.3202 1122.1248,258.9922 1121.6018,259.2982 L1111.0198,265.4752 C1110.8458,265.5762 1110.6548,265.6242 1110.4678,265.6242" id="Fill-263" fill="#FFFFFF"></path>
                            <path d="M1125.8604,256.6398 C1125.4834,256.6398 1125.1164,256.4458 1124.9114,256.0948 C1124.6064,255.5728 1124.7834,254.9008 1125.3064,254.5948 L1146.6294,242.1488 C1147.1514,241.8428 1147.8234,242.0188 1148.1304,242.5428 C1148.4344,243.0668 1148.2574,243.7388 1147.7344,244.0438 L1126.4124,256.4908 C1126.2384,256.5918 1126.0474,256.6398 1125.8604,256.6398" id="Fill-265" fill="#FFFFFF"></path>
                            <path d="M1151.6387,241.5929 C1151.2607,241.5929 1150.8937,241.3989 1150.6897,241.0479 C1150.3847,240.5259 1150.5617,239.8539 1151.0847,239.5479 L1157.9627,235.5319 C1158.4857,235.2289 1159.1577,235.4029 1159.4637,235.9279 C1159.7687,236.4499 1159.5927,237.1229 1159.0687,237.4289 L1152.1907,241.4439 C1152.0167,241.5449 1151.8257,241.5929 1151.6387,241.5929" id="Fill-267" fill="#FFFFFF"></path>
                            <path d="M1116.4453,269.6398 C1116.0683,269.6398 1115.7013,269.4448 1115.4973,269.0948 C1115.1913,268.5728 1115.3683,267.9008 1115.8913,267.5948 L1135.3863,256.2148 C1135.9093,255.9098 1136.5813,256.0858 1136.8873,256.6098 C1137.1923,257.1328 1137.0163,257.8048 1136.4933,258.1108 L1116.9973,269.4908 C1116.8243,269.5918 1116.6323,269.6398 1116.4453,269.6398" id="Fill-269" fill="#FFFFFF"></path>
                            <path d="M1141.6377,254.9347 C1141.2607,254.9347 1140.8937,254.7407 1140.6897,254.3907 C1140.3837,253.8677 1140.5607,253.1957 1141.0837,252.8897 L1158.3577,242.8067 C1158.8797,242.5017 1159.5527,242.6767 1159.8587,243.2027 C1160.1627,243.7247 1159.9867,244.3967 1159.4627,244.7027 L1142.1897,254.7857 C1142.0167,254.8867 1141.8247,254.9347 1141.6377,254.9347" id="Fill-271" fill="#FFFFFF"></path>
                            <path d="M1123.1582,273.4709 C1122.7812,273.4709 1122.4142,273.2769 1122.2092,272.9269 C1121.9042,272.4039 1122.0812,271.7319 1122.6042,271.4259 L1151.4382,254.5949 C1151.9612,254.2889 1152.6352,254.4649 1152.9392,254.9899 C1153.2452,255.5129 1153.0682,256.1849 1152.5452,256.4909 L1123.7102,273.3219 C1123.5362,273.4229 1123.3452,273.4709 1123.1582,273.4709" id="Fill-273" fill="#FFFFFF"></path>
                            <path d="M1157.3008,253.5412 C1156.9238,253.5412 1156.5568,253.3462 1156.3528,252.9972 C1156.0478,252.4742 1156.2238,251.8022 1156.7468,251.4962 L1168.5258,244.6212 C1169.0478,244.3152 1169.7198,244.4932 1170.0258,245.0162 C1170.3308,245.5392 1170.1548,246.2112 1169.6308,246.5172 L1157.8538,253.3922 C1157.6798,253.4932 1157.4888,253.5412 1157.3008,253.5412" id="Fill-275" fill="#FFFFFF"></path>
                            <path d="M1129.3682,277.2433 C1128.9912,277.2433 1128.6242,277.0493 1128.4202,276.6993 C1128.1152,276.1773 1128.2912,275.5043 1128.8152,275.1983 L1135.2792,271.4263 C1135.8022,271.1213 1136.4742,271.2973 1136.7802,271.8203 C1137.0852,272.3443 1136.9082,273.0153 1136.3852,273.3213 L1129.9212,277.0943 C1129.7472,277.1953 1129.5562,277.2433 1129.3682,277.2433" id="Fill-277" fill="#FFFFFF"></path>
                            <path d="M1141.6377,270.0822 C1141.2607,270.0822 1140.8937,269.8882 1140.6897,269.5382 C1140.3837,269.0152 1140.5607,268.3432 1141.0837,268.0372 L1167.0347,252.8902 C1167.5577,252.5842 1168.2297,252.7612 1168.5357,253.2842 C1168.8407,253.8082 1168.6637,254.4792 1168.1407,254.7852 L1142.1897,269.9332 C1142.0167,270.0342 1141.8247,270.0822 1141.6377,270.0822" id="Fill-279" fill="#FFFFFF"></path>
                            <path d="M1135.9404,280.7209 C1135.5634,280.7209 1135.1964,280.5259 1134.9924,280.1759 C1134.6874,279.6539 1134.8634,278.9819 1135.3864,278.6759 L1160.7354,263.8799 C1161.2554,263.5749 1161.9304,263.7519 1162.2364,264.2759 C1162.5414,264.7979 1162.3644,265.4699 1161.8404,265.7759 L1136.4934,280.5719 C1136.3194,280.6729 1136.1284,280.7209 1135.9404,280.7209" id="Fill-281" fill="#FFFFFF"></path>
                            <path d="M1166.4316,262.923 C1166.0546,262.923 1165.6876,262.728 1165.4836,262.379 C1165.1776,261.856 1165.3546,261.184 1165.8776,260.878 L1183.4366,250.629 C1183.9586,250.324 1184.6306,250.5 1184.9366,251.024 C1185.2426,251.547 1185.0656,252.219 1184.5416,252.525 L1166.9836,262.774 C1166.8106,262.875 1166.6186,262.923 1166.4316,262.923" id="Fill-283" fill="#FFFFFF"></path>
                            <path d="M344.6709,382.4923 C344.6709,384.1333 346.0039,385.4703 347.6459,385.4703 C349.2859,385.4703 350.6229,384.1333 350.6229,382.4923 C350.6229,380.8513 349.2859,379.5173 347.6459,379.5173 C346.0039,379.5173 344.6709,380.8513 344.6709,382.4923 M339.3639,382.4923 C339.3639,377.9263 343.0779,374.2123 347.6459,374.2123 C352.2119,374.2123 355.9299,377.9263 355.9299,382.4923 C355.9299,387.0593 352.2119,390.7763 347.6459,390.7763 C343.0779,390.7763 339.3639,387.0593 339.3639,382.4923" id="Fill-285" fill="#FFFFFF"></path>
                            <path d="M361.957,364.8253 L361.795,364.6633 C361.795,364.7533 361.868,364.8253 361.957,364.8253 M356.489,364.6633 C356.489,361.6503 358.941,359.1983 361.957,359.1983 C364.974,359.1983 367.426,361.6503 367.426,364.6633 C367.426,367.6793 364.974,370.1323 361.957,370.1323 C358.941,370.1323 356.489,367.6793 356.489,364.6633" id="Fill-287" fill="#FFFFFF"></path>
                            <path d="M97.4072,536.1046 C99.0492,536.1046 100.3862,534.7716 100.3862,533.1306 C100.3862,531.4896 99.0492,530.1526 97.4072,530.1526 C95.7662,530.1526 94.4332,531.4896 94.4332,533.1306 C94.4332,534.7716 95.7662,536.1046 97.4072,536.1046 M97.4072,541.4116 C92.8412,541.4116 89.1272,537.6976 89.1272,533.1306 C89.1272,528.5636 92.8412,524.8466 97.4072,524.8466 C101.9742,524.8466 105.6912,528.5636 105.6912,533.1306 C105.6912,537.6976 101.9742,541.4116 97.4072,541.4116" id="Fill-289" fill="#FFFFFF"></path>
                            <path d="M79.7412,518.8185 L79.5782,518.9805 C79.6682,518.9805 79.7412,518.9085 79.7412,518.8185 M79.5782,524.2875 C76.5662,524.2875 74.1132,521.8345 74.1132,518.8185 C74.1132,515.8015 76.5662,513.3495 79.5782,513.3495 C82.5952,513.3495 85.0472,515.8015 85.0472,518.8185 C85.0472,521.8345 82.5952,524.2875 79.5782,524.2875" id="Fill-291" fill="#FFFFFF"></path>
                            <path d="M984.9502,535.3888 C984.9502,536.9758 986.1902,538.2688 987.7182,538.2688 C989.2442,538.2688 990.4882,536.9758 990.4882,535.3888 C990.4882,533.8018 989.2442,532.5118 987.7182,532.5118 C986.1902,532.5118 984.9502,533.8018 984.9502,535.3888 M995.4252,535.3888 C995.4252,539.8048 991.9672,543.3998 987.7182,543.3998 C983.4682,543.3998 980.0132,539.8048 980.0132,535.3888 C980.0132,530.9718 983.4682,527.3798 987.7182,527.3798 C991.9672,527.3798 995.4252,530.9718 995.4252,535.3888" id="Fill-293" fill="#FFFFFF"></path>
                            <path d="M971.1289,549.0724 L971.2799,549.2294 C971.2799,549.1424 971.2119,549.0724 971.1289,549.0724 M976.2169,549.2294 C976.2169,552.1454 973.9349,554.5174 971.1289,554.5174 C968.3259,554.5174 966.0439,552.1454 966.0439,549.2294 C966.0439,546.3124 968.3259,543.9404 971.1289,543.9404 C973.9349,543.9404 976.2169,546.3124 976.2169,549.2294" id="Fill-295" fill="#FFFFFF"></path>
                            <path d="M1399.9365,394.922 C1398.3495,394.922 1397.0565,396.162 1397.0565,397.69 C1397.0565,399.216 1398.3495,400.46 1399.9365,400.46 C1401.5235,400.46 1402.8125,399.216 1402.8125,397.69 C1402.8125,396.162 1401.5235,394.922 1399.9365,394.922 M1399.9365,405.397 C1395.5195,405.397 1391.9245,401.939 1391.9245,397.69 C1391.9245,393.44 1395.5195,389.985 1399.9365,389.985 C1404.3525,389.985 1407.9445,393.44 1407.9445,397.69 C1407.9445,401.939 1404.3525,405.397 1399.9365,405.397" id="Fill-297" fill="#FFFFFF"></path>
                            <path d="M1386.252,381.1007 L1386.095,381.2507 C1386.182,381.2507 1386.252,381.1837 1386.252,381.1007 M1386.095,386.1887 C1383.179,386.1887 1380.807,383.9067 1380.807,381.1007 C1380.807,378.2977 1383.179,376.0157 1386.095,376.0157 C1389.012,376.0157 1391.384,378.2977 1391.384,381.1007 C1391.384,383.9067 1389.012,386.1887 1386.095,386.1887" id="Fill-299" fill="#FFFFFF"></path>
                            <path d="M1059.4688,123.1867 C1059.4688,121.5997 1058.2288,120.3067 1056.7008,120.3067 C1055.1748,120.3067 1053.9308,121.5997 1053.9308,123.1867 C1053.9308,124.7737 1055.1748,126.0627 1056.7008,126.0627 C1058.2288,126.0627 1059.4688,124.7737 1059.4688,123.1867 M1048.9928,123.1867 C1048.9928,118.7697 1052.4518,115.1747 1056.7008,115.1747 C1060.9498,115.1747 1064.4058,118.7697 1064.4058,123.1867 C1064.4058,127.6027 1060.9498,131.1947 1056.7008,131.1947 C1052.4518,131.1947 1048.9928,127.6027 1048.9928,123.1867" id="Fill-301" fill="#FFFFFF"></path>
                            <path d="M1073.29,109.5021 L1073.139,109.3461 C1073.139,109.4331 1073.206,109.5021 1073.29,109.5021 M1068.202,109.3461 C1068.202,106.4291 1070.484,104.0571 1073.29,104.0571 C1076.093,104.0571 1078.375,106.4291 1078.375,109.3461 C1078.375,112.2621 1076.093,114.6341 1073.29,114.6341 C1070.484,114.6341 1068.202,112.2621 1068.202,109.3461" id="Fill-303" fill="#FFFFFF"></path>
                            <path d="M81.1553,230.6339 C81.1553,232.2749 82.5423,233.6119 84.2473,233.6119 C85.9533,233.6119 87.3423,232.2749 87.3423,230.6339 C87.3423,228.9929 85.9533,227.6589 84.2473,227.6589 C82.5423,227.6589 81.1553,228.9929 81.1553,230.6339 M75.6403,230.6339 C75.6403,226.0679 79.5003,222.3539 84.2473,222.3539 C88.9943,222.3539 92.8573,226.0679 92.8573,230.6339 C92.8573,235.2009 88.9943,238.9179 84.2473,238.9179 C79.5003,238.9179 75.6403,235.2009 75.6403,230.6339" id="Fill-305" fill="#FFFFFF"></path>
                            <path d="M99.123,212.9669 L98.955,212.8049 C98.955,212.8949 99.03,212.9669 99.123,212.9669 M93.439,212.8049 C93.439,209.7919 95.988,207.3399 99.123,207.3399 C102.258,207.3399 104.808,209.7919 104.808,212.8049 C104.808,215.8209 102.258,218.2739 99.123,218.2739 C95.988,218.2739 93.439,215.8209 93.439,212.8049" id="Fill-307" fill="#FFFFFF"></path>
                            <path d="M82.041,115.1935 C82.041,119.5355 85.561,123.0545 89.902,123.0545 C94.244,123.0545 97.764,119.5355 97.764,115.1935 C97.764,110.8525 94.244,107.3335 89.902,107.3335 C85.561,107.3335 82.041,110.8525 82.041,115.1935" id="Fill-309" fill="#FFFFFF"></path>
                            <path d="M1402.5098,204.4787 C1402.5098,208.5177 1399.2358,211.7927 1395.1968,211.7927 C1391.1558,211.7927 1387.8818,208.5177 1387.8818,204.4787 C1387.8818,200.4397 1391.1558,197.1647 1395.1968,197.1647 C1399.2358,197.1647 1402.5098,200.4397 1402.5098,204.4787" id="Fill-311" fill="#FFFFFF"></path>
                        </g>
                    </g>
                </g>
            </g>
        </g>
    </g>
</svg>