<svg id="Layer_1" data-name="Layer 1" xmlns="http://www.w3.org/2000/svg" viewBox="0 0 345 277.97"><defs><style>.cls-1{fill:#3f5dff;}</style></defs><title>LoopBack-Mark-(blue)</title><path class="cls-1" d="M256,246.54" transform="translate(-77.5 -111.01)"/><polygon class="cls-1" points="91.04 231.17 127.15 207.95 172.85 234.02 218.97 207.06 257.16 228.84 173.08 277.97 91.04 231.17"/><polygon class="cls-1" points="75.8 56.17 171.92 0 268.67 55.19 268.98 152.29 230.84 130.54 230.67 77.34 172.15 43.96 113.93 77.98 114.1 131.15 101.11 138.71 76.12 154.77 75.8 56.17"/><polygon class="cls-1" points="127.67 91.57 155.16 107.22 127.77 123.18 127.67 91.57"/><polygon class="cls-1" points="190.01 170.83 227.88 148.64 274.9 175.41 306.82 156.77 306.63 119.81 282.52 106.06 282.39 62.16 344.99 97.88 345 178.54 275.15 219.37 190.01 170.83"/><polygon class="cls-1" points="0.42 180.34 0 99.43 62.13 63.14 62.26 107.14 38.18 121.21 38.37 158.16 70.48 176.47 217.03 90.97 217.16 134.98 70.7 220.43 0.42 180.34"/></svg>